%TF.GenerationSoftware,KiCad,Pcbnew,(5.1.10-1-10_14)*%
%TF.CreationDate,2021-11-01T10:51:15+01:00*%
%TF.ProjectId,esp32-wled-pcb,65737033-322d-4776-9c65-642d7063622e,rev?*%
%TF.SameCoordinates,Original*%
%TF.FileFunction,Legend,Top*%
%TF.FilePolarity,Positive*%
%FSLAX46Y46*%
G04 Gerber Fmt 4.6, Leading zero omitted, Abs format (unit mm)*
G04 Created by KiCad (PCBNEW (5.1.10-1-10_14)) date 2021-11-01 10:51:15*
%MOMM*%
%LPD*%
G01*
G04 APERTURE LIST*
%ADD10C,0.150000*%
%ADD11C,0.120000*%
%ADD12C,0.200000*%
G04 APERTURE END LIST*
D10*
X122261904Y-70045238D02*
X122833333Y-70045238D01*
X122947619Y-70083333D01*
X123023809Y-70159523D01*
X123061904Y-70273809D01*
X123061904Y-70350000D01*
X123061904Y-69283333D02*
X123061904Y-69664285D01*
X122261904Y-69664285D01*
X122985714Y-68559523D02*
X123023809Y-68597619D01*
X123061904Y-68711904D01*
X123061904Y-68788095D01*
X123023809Y-68902380D01*
X122947619Y-68978571D01*
X122871428Y-69016666D01*
X122719047Y-69054761D01*
X122604761Y-69054761D01*
X122452380Y-69016666D01*
X122376190Y-68978571D01*
X122300000Y-68902380D01*
X122261904Y-68788095D01*
X122261904Y-68711904D01*
X122300000Y-68597619D01*
X122338095Y-68559523D01*
X122261904Y-67988095D02*
X122833333Y-67988095D01*
X122947619Y-68026190D01*
X123023809Y-68102380D01*
X123061904Y-68216666D01*
X123061904Y-68292857D01*
X123061904Y-67226190D02*
X123061904Y-67607142D01*
X122261904Y-67607142D01*
X122985714Y-66502380D02*
X123023809Y-66540476D01*
X123061904Y-66654761D01*
X123061904Y-66730952D01*
X123023809Y-66845238D01*
X122947619Y-66921428D01*
X122871428Y-66959523D01*
X122719047Y-66997619D01*
X122604761Y-66997619D01*
X122452380Y-66959523D01*
X122376190Y-66921428D01*
X122300000Y-66845238D01*
X122261904Y-66730952D01*
X122261904Y-66654761D01*
X122300000Y-66540476D01*
X122338095Y-66502380D01*
X122261904Y-65930952D02*
X122833333Y-65930952D01*
X122947619Y-65969047D01*
X123023809Y-66045238D01*
X123061904Y-66159523D01*
X123061904Y-66235714D01*
X123061904Y-65169047D02*
X123061904Y-65550000D01*
X122261904Y-65550000D01*
X122985714Y-64445238D02*
X123023809Y-64483333D01*
X123061904Y-64597619D01*
X123061904Y-64673809D01*
X123023809Y-64788095D01*
X122947619Y-64864285D01*
X122871428Y-64902380D01*
X122719047Y-64940476D01*
X122604761Y-64940476D01*
X122452380Y-64902380D01*
X122376190Y-64864285D01*
X122300000Y-64788095D01*
X122261904Y-64673809D01*
X122261904Y-64597619D01*
X122300000Y-64483333D01*
X122338095Y-64445238D01*
X122261904Y-63873809D02*
X122833333Y-63873809D01*
X122947619Y-63911904D01*
X123023809Y-63988095D01*
X123061904Y-64102380D01*
X123061904Y-64178571D01*
X123061904Y-63111904D02*
X123061904Y-63492857D01*
X122261904Y-63492857D01*
X122985714Y-62388095D02*
X123023809Y-62426190D01*
X123061904Y-62540476D01*
X123061904Y-62616666D01*
X123023809Y-62730952D01*
X122947619Y-62807142D01*
X122871428Y-62845238D01*
X122719047Y-62883333D01*
X122604761Y-62883333D01*
X122452380Y-62845238D01*
X122376190Y-62807142D01*
X122300000Y-62730952D01*
X122261904Y-62616666D01*
X122261904Y-62540476D01*
X122300000Y-62426190D01*
X122338095Y-62388095D01*
X119242857Y-70971428D02*
X119242857Y-70514285D01*
X119471428Y-70742857D02*
X119014285Y-70742857D01*
X118871428Y-69942857D02*
X118871428Y-70228571D01*
X119157142Y-70257142D01*
X119128571Y-70228571D01*
X119100000Y-70171428D01*
X119100000Y-70028571D01*
X119128571Y-69971428D01*
X119157142Y-69942857D01*
X119214285Y-69914285D01*
X119357142Y-69914285D01*
X119414285Y-69942857D01*
X119442857Y-69971428D01*
X119471428Y-70028571D01*
X119471428Y-70171428D01*
X119442857Y-70228571D01*
X119414285Y-70257142D01*
X118871428Y-69742857D02*
X119471428Y-69542857D01*
X118871428Y-69342857D01*
X119621428Y-67792857D02*
X119021428Y-67792857D01*
X119021428Y-67650000D01*
X119050000Y-67564285D01*
X119107142Y-67507142D01*
X119164285Y-67478571D01*
X119278571Y-67450000D01*
X119364285Y-67450000D01*
X119478571Y-67478571D01*
X119535714Y-67507142D01*
X119592857Y-67564285D01*
X119621428Y-67650000D01*
X119621428Y-67792857D01*
X119450000Y-67221428D02*
X119450000Y-66935714D01*
X119621428Y-67278571D02*
X119021428Y-67078571D01*
X119621428Y-66878571D01*
X119021428Y-66764285D02*
X119021428Y-66421428D01*
X119621428Y-66592857D02*
X119021428Y-66592857D01*
X119200000Y-64657142D02*
X119171428Y-64714285D01*
X119171428Y-64800000D01*
X119200000Y-64885714D01*
X119257142Y-64942857D01*
X119314285Y-64971428D01*
X119428571Y-65000000D01*
X119514285Y-65000000D01*
X119628571Y-64971428D01*
X119685714Y-64942857D01*
X119742857Y-64885714D01*
X119771428Y-64800000D01*
X119771428Y-64742857D01*
X119742857Y-64657142D01*
X119714285Y-64628571D01*
X119514285Y-64628571D01*
X119514285Y-64742857D01*
X119771428Y-64371428D02*
X119171428Y-64371428D01*
X119771428Y-64028571D01*
X119171428Y-64028571D01*
X119771428Y-63742857D02*
X119171428Y-63742857D01*
X119171428Y-63600000D01*
X119200000Y-63514285D01*
X119257142Y-63457142D01*
X119314285Y-63428571D01*
X119428571Y-63400000D01*
X119514285Y-63400000D01*
X119628571Y-63428571D01*
X119685714Y-63457142D01*
X119742857Y-63514285D01*
X119771428Y-63600000D01*
X119771428Y-63742857D01*
X119000000Y-54657142D02*
X118971428Y-54714285D01*
X118971428Y-54800000D01*
X119000000Y-54885714D01*
X119057142Y-54942857D01*
X119114285Y-54971428D01*
X119228571Y-55000000D01*
X119314285Y-55000000D01*
X119428571Y-54971428D01*
X119485714Y-54942857D01*
X119542857Y-54885714D01*
X119571428Y-54800000D01*
X119571428Y-54742857D01*
X119542857Y-54657142D01*
X119514285Y-54628571D01*
X119314285Y-54628571D01*
X119314285Y-54742857D01*
X119571428Y-54371428D02*
X118971428Y-54371428D01*
X119571428Y-54028571D01*
X118971428Y-54028571D01*
X119571428Y-53742857D02*
X118971428Y-53742857D01*
X118971428Y-53600000D01*
X119000000Y-53514285D01*
X119057142Y-53457142D01*
X119114285Y-53428571D01*
X119228571Y-53400000D01*
X119314285Y-53400000D01*
X119428571Y-53428571D01*
X119485714Y-53457142D01*
X119542857Y-53514285D01*
X119571428Y-53600000D01*
X119571428Y-53742857D01*
X119257142Y-60992857D02*
X119257142Y-60792857D01*
X119571428Y-60707142D02*
X119571428Y-60992857D01*
X118971428Y-60992857D01*
X118971428Y-60707142D01*
X119628571Y-60592857D02*
X119628571Y-60135714D01*
X119571428Y-59650000D02*
X119285714Y-59850000D01*
X119571428Y-59992857D02*
X118971428Y-59992857D01*
X118971428Y-59764285D01*
X119000000Y-59707142D01*
X119028571Y-59678571D01*
X119085714Y-59650000D01*
X119171428Y-59650000D01*
X119228571Y-59678571D01*
X119257142Y-59707142D01*
X119285714Y-59764285D01*
X119285714Y-59992857D01*
X118971428Y-59450000D02*
X119571428Y-59050000D01*
X118971428Y-59050000D02*
X119571428Y-59450000D01*
X119257142Y-57921428D02*
X119257142Y-57721428D01*
X119571428Y-57635714D02*
X119571428Y-57921428D01*
X118971428Y-57921428D01*
X118971428Y-57635714D01*
X119628571Y-57521428D02*
X119628571Y-57064285D01*
X118971428Y-57007142D02*
X118971428Y-56664285D01*
X119571428Y-56835714D02*
X118971428Y-56835714D01*
X118971428Y-56521428D02*
X119571428Y-56121428D01*
X118971428Y-56121428D02*
X119571428Y-56521428D01*
X105214285Y-66607142D02*
X105300000Y-66635714D01*
X105328571Y-66664285D01*
X105357142Y-66721428D01*
X105357142Y-66807142D01*
X105328571Y-66864285D01*
X105300000Y-66892857D01*
X105242857Y-66921428D01*
X105014285Y-66921428D01*
X105014285Y-66321428D01*
X105214285Y-66321428D01*
X105271428Y-66350000D01*
X105300000Y-66378571D01*
X105328571Y-66435714D01*
X105328571Y-66492857D01*
X105300000Y-66550000D01*
X105271428Y-66578571D01*
X105214285Y-66607142D01*
X105014285Y-66607142D01*
X105528571Y-66321428D02*
X105871428Y-66321428D01*
X105700000Y-66921428D02*
X105700000Y-66321428D01*
X106471428Y-51821428D02*
X106271428Y-51535714D01*
X106128571Y-51821428D02*
X106128571Y-51221428D01*
X106357142Y-51221428D01*
X106414285Y-51250000D01*
X106442857Y-51278571D01*
X106471428Y-51335714D01*
X106471428Y-51421428D01*
X106442857Y-51478571D01*
X106414285Y-51507142D01*
X106357142Y-51535714D01*
X106128571Y-51535714D01*
X106700000Y-51792857D02*
X106785714Y-51821428D01*
X106928571Y-51821428D01*
X106985714Y-51792857D01*
X107014285Y-51764285D01*
X107042857Y-51707142D01*
X107042857Y-51650000D01*
X107014285Y-51592857D01*
X106985714Y-51564285D01*
X106928571Y-51535714D01*
X106814285Y-51507142D01*
X106757142Y-51478571D01*
X106728571Y-51450000D01*
X106700000Y-51392857D01*
X106700000Y-51335714D01*
X106728571Y-51278571D01*
X106757142Y-51250000D01*
X106814285Y-51221428D01*
X106957142Y-51221428D01*
X107042857Y-51250000D01*
X107214285Y-51221428D02*
X107557142Y-51221428D01*
X107385714Y-51821428D02*
X107385714Y-51221428D01*
D11*
X104850000Y-50500000D02*
X123050000Y-50500000D01*
D10*
X105235595Y-46178571D02*
X105568928Y-46178571D01*
X105711785Y-46702380D02*
X105235595Y-46702380D01*
X105235595Y-45702380D01*
X105711785Y-45702380D01*
X106092738Y-46654761D02*
X106235595Y-46702380D01*
X106473690Y-46702380D01*
X106568928Y-46654761D01*
X106616547Y-46607142D01*
X106664166Y-46511904D01*
X106664166Y-46416666D01*
X106616547Y-46321428D01*
X106568928Y-46273809D01*
X106473690Y-46226190D01*
X106283214Y-46178571D01*
X106187976Y-46130952D01*
X106140357Y-46083333D01*
X106092738Y-45988095D01*
X106092738Y-45892857D01*
X106140357Y-45797619D01*
X106187976Y-45750000D01*
X106283214Y-45702380D01*
X106521309Y-45702380D01*
X106664166Y-45750000D01*
X107092738Y-46702380D02*
X107092738Y-45702380D01*
X107473690Y-45702380D01*
X107568928Y-45750000D01*
X107616547Y-45797619D01*
X107664166Y-45892857D01*
X107664166Y-46035714D01*
X107616547Y-46130952D01*
X107568928Y-46178571D01*
X107473690Y-46226190D01*
X107092738Y-46226190D01*
X107997500Y-45702380D02*
X108616547Y-45702380D01*
X108283214Y-46083333D01*
X108426071Y-46083333D01*
X108521309Y-46130952D01*
X108568928Y-46178571D01*
X108616547Y-46273809D01*
X108616547Y-46511904D01*
X108568928Y-46607142D01*
X108521309Y-46654761D01*
X108426071Y-46702380D01*
X108140357Y-46702380D01*
X108045119Y-46654761D01*
X107997500Y-46607142D01*
X108997500Y-45797619D02*
X109045119Y-45750000D01*
X109140357Y-45702380D01*
X109378452Y-45702380D01*
X109473690Y-45750000D01*
X109521309Y-45797619D01*
X109568928Y-45892857D01*
X109568928Y-45988095D01*
X109521309Y-46130952D01*
X108949880Y-46702380D01*
X109568928Y-46702380D01*
X109997500Y-46321428D02*
X110759404Y-46321428D01*
X111140357Y-45702380D02*
X111378452Y-46702380D01*
X111568928Y-45988095D01*
X111759404Y-46702380D01*
X111997500Y-45702380D01*
X112854642Y-46702380D02*
X112378452Y-46702380D01*
X112378452Y-45702380D01*
X113187976Y-46178571D02*
X113521309Y-46178571D01*
X113664166Y-46702380D02*
X113187976Y-46702380D01*
X113187976Y-45702380D01*
X113664166Y-45702380D01*
X114092738Y-46702380D02*
X114092738Y-45702380D01*
X114330833Y-45702380D01*
X114473690Y-45750000D01*
X114568928Y-45845238D01*
X114616547Y-45940476D01*
X114664166Y-46130952D01*
X114664166Y-46273809D01*
X114616547Y-46464285D01*
X114568928Y-46559523D01*
X114473690Y-46654761D01*
X114330833Y-46702380D01*
X114092738Y-46702380D01*
X115759404Y-46035714D02*
X115997500Y-46702380D01*
X116235595Y-46035714D01*
X117140357Y-46702380D02*
X116568928Y-46702380D01*
X116854642Y-46702380D02*
X116854642Y-45702380D01*
X116759404Y-45845238D01*
X116664166Y-45940476D01*
X116568928Y-45988095D01*
X105187976Y-47447619D02*
X105235595Y-47400000D01*
X105330833Y-47352380D01*
X105568928Y-47352380D01*
X105664166Y-47400000D01*
X105711785Y-47447619D01*
X105759404Y-47542857D01*
X105759404Y-47638095D01*
X105711785Y-47780952D01*
X105140357Y-48352380D01*
X105759404Y-48352380D01*
X106378452Y-47352380D02*
X106473690Y-47352380D01*
X106568928Y-47400000D01*
X106616547Y-47447619D01*
X106664166Y-47542857D01*
X106711785Y-47733333D01*
X106711785Y-47971428D01*
X106664166Y-48161904D01*
X106616547Y-48257142D01*
X106568928Y-48304761D01*
X106473690Y-48352380D01*
X106378452Y-48352380D01*
X106283214Y-48304761D01*
X106235595Y-48257142D01*
X106187976Y-48161904D01*
X106140357Y-47971428D01*
X106140357Y-47733333D01*
X106187976Y-47542857D01*
X106235595Y-47447619D01*
X106283214Y-47400000D01*
X106378452Y-47352380D01*
X107092738Y-47447619D02*
X107140357Y-47400000D01*
X107235595Y-47352380D01*
X107473690Y-47352380D01*
X107568928Y-47400000D01*
X107616547Y-47447619D01*
X107664166Y-47542857D01*
X107664166Y-47638095D01*
X107616547Y-47780952D01*
X107045119Y-48352380D01*
X107664166Y-48352380D01*
X108616547Y-48352380D02*
X108045119Y-48352380D01*
X108330833Y-48352380D02*
X108330833Y-47352380D01*
X108235595Y-47495238D01*
X108140357Y-47590476D01*
X108045119Y-47638095D01*
X109807023Y-48352380D02*
X109807023Y-47352380D01*
X110045119Y-47352380D01*
X110187976Y-47400000D01*
X110283214Y-47495238D01*
X110330833Y-47590476D01*
X110378452Y-47780952D01*
X110378452Y-47923809D01*
X110330833Y-48114285D01*
X110283214Y-48209523D01*
X110187976Y-48304761D01*
X110045119Y-48352380D01*
X109807023Y-48352380D01*
X110807023Y-48352380D02*
X110807023Y-47685714D01*
X110807023Y-47352380D02*
X110759404Y-47400000D01*
X110807023Y-47447619D01*
X110854642Y-47400000D01*
X110807023Y-47352380D01*
X110807023Y-47447619D01*
X111283214Y-48352380D02*
X111283214Y-47685714D01*
X111283214Y-47876190D02*
X111330833Y-47780952D01*
X111378452Y-47733333D01*
X111473690Y-47685714D01*
X111568928Y-47685714D01*
X111902261Y-48352380D02*
X111902261Y-47352380D01*
X111997500Y-47971428D02*
X112283214Y-48352380D01*
X112283214Y-47685714D02*
X111902261Y-48066666D01*
X114045119Y-48352380D02*
X113711785Y-47876190D01*
X113473690Y-48352380D02*
X113473690Y-47352380D01*
X113854642Y-47352380D01*
X113949880Y-47400000D01*
X113997500Y-47447619D01*
X114045119Y-47542857D01*
X114045119Y-47685714D01*
X113997500Y-47780952D01*
X113949880Y-47828571D01*
X113854642Y-47876190D01*
X113473690Y-47876190D01*
X114473690Y-48352380D02*
X114473690Y-47685714D01*
X114473690Y-47352380D02*
X114426071Y-47400000D01*
X114473690Y-47447619D01*
X114521309Y-47400000D01*
X114473690Y-47352380D01*
X114473690Y-47447619D01*
X115330833Y-48304761D02*
X115235595Y-48352380D01*
X115045119Y-48352380D01*
X114949880Y-48304761D01*
X114902261Y-48209523D01*
X114902261Y-47828571D01*
X114949880Y-47733333D01*
X115045119Y-47685714D01*
X115235595Y-47685714D01*
X115330833Y-47733333D01*
X115378452Y-47828571D01*
X115378452Y-47923809D01*
X114902261Y-48019047D01*
X115807023Y-48352380D02*
X115807023Y-47685714D01*
X115807023Y-47780952D02*
X115854642Y-47733333D01*
X115949880Y-47685714D01*
X116092738Y-47685714D01*
X116187976Y-47733333D01*
X116235595Y-47828571D01*
X116235595Y-48352380D01*
X116235595Y-47828571D02*
X116283214Y-47733333D01*
X116378452Y-47685714D01*
X116521309Y-47685714D01*
X116616547Y-47733333D01*
X116664166Y-47828571D01*
X116664166Y-48352380D01*
X117521309Y-48304761D02*
X117426071Y-48352380D01*
X117235595Y-48352380D01*
X117140357Y-48304761D01*
X117092738Y-48209523D01*
X117092738Y-47828571D01*
X117140357Y-47733333D01*
X117235595Y-47685714D01*
X117426071Y-47685714D01*
X117521309Y-47733333D01*
X117568928Y-47828571D01*
X117568928Y-47923809D01*
X117092738Y-48019047D01*
X117997500Y-48352380D02*
X117997500Y-47352380D01*
X118092738Y-47971428D02*
X118378452Y-48352380D01*
X118378452Y-47685714D02*
X117997500Y-48066666D01*
X119235595Y-48352380D02*
X119235595Y-47828571D01*
X119187976Y-47733333D01*
X119092738Y-47685714D01*
X118902261Y-47685714D01*
X118807023Y-47733333D01*
X119235595Y-48304761D02*
X119140357Y-48352380D01*
X118902261Y-48352380D01*
X118807023Y-48304761D01*
X118759404Y-48209523D01*
X118759404Y-48114285D01*
X118807023Y-48019047D01*
X118902261Y-47971428D01*
X119140357Y-47971428D01*
X119235595Y-47923809D01*
X119664166Y-48304761D02*
X119759404Y-48352380D01*
X119949880Y-48352380D01*
X120045119Y-48304761D01*
X120092738Y-48209523D01*
X120092738Y-48161904D01*
X120045119Y-48066666D01*
X119949880Y-48019047D01*
X119807023Y-48019047D01*
X119711785Y-47971428D01*
X119664166Y-47876190D01*
X119664166Y-47828571D01*
X119711785Y-47733333D01*
X119807023Y-47685714D01*
X119949880Y-47685714D01*
X120045119Y-47733333D01*
X120378452Y-47685714D02*
X120759404Y-47685714D01*
X120521309Y-47352380D02*
X120521309Y-48209523D01*
X120568928Y-48304761D01*
X120664166Y-48352380D01*
X120759404Y-48352380D01*
X121473690Y-48304761D02*
X121378452Y-48352380D01*
X121187976Y-48352380D01*
X121092738Y-48304761D01*
X121045119Y-48209523D01*
X121045119Y-47828571D01*
X121092738Y-47733333D01*
X121187976Y-47685714D01*
X121378452Y-47685714D01*
X121473690Y-47733333D01*
X121521309Y-47828571D01*
X121521309Y-47923809D01*
X121045119Y-48019047D01*
X121949880Y-47685714D02*
X121949880Y-48352380D01*
X121949880Y-47780952D02*
X121997500Y-47733333D01*
X122092738Y-47685714D01*
X122235595Y-47685714D01*
X122330833Y-47733333D01*
X122378452Y-47828571D01*
X122378452Y-48352380D01*
X105807023Y-49907142D02*
X105759404Y-49954761D01*
X105616547Y-50002380D01*
X105521309Y-50002380D01*
X105378452Y-49954761D01*
X105283214Y-49859523D01*
X105235595Y-49764285D01*
X105187976Y-49573809D01*
X105187976Y-49430952D01*
X105235595Y-49240476D01*
X105283214Y-49145238D01*
X105378452Y-49050000D01*
X105521309Y-49002380D01*
X105616547Y-49002380D01*
X105759404Y-49050000D01*
X105807023Y-49097619D01*
X106807023Y-49907142D02*
X106759404Y-49954761D01*
X106616547Y-50002380D01*
X106521309Y-50002380D01*
X106378452Y-49954761D01*
X106283214Y-49859523D01*
X106235595Y-49764285D01*
X106187976Y-49573809D01*
X106187976Y-49430952D01*
X106235595Y-49240476D01*
X106283214Y-49145238D01*
X106378452Y-49050000D01*
X106521309Y-49002380D01*
X106616547Y-49002380D01*
X106759404Y-49050000D01*
X106807023Y-49097619D01*
X108330833Y-49478571D02*
X108473690Y-49526190D01*
X108521309Y-49573809D01*
X108568928Y-49669047D01*
X108568928Y-49811904D01*
X108521309Y-49907142D01*
X108473690Y-49954761D01*
X108378452Y-50002380D01*
X107997500Y-50002380D01*
X107997500Y-49002380D01*
X108330833Y-49002380D01*
X108426071Y-49050000D01*
X108473690Y-49097619D01*
X108521309Y-49192857D01*
X108521309Y-49288095D01*
X108473690Y-49383333D01*
X108426071Y-49430952D01*
X108330833Y-49478571D01*
X107997500Y-49478571D01*
X109187976Y-49526190D02*
X109187976Y-50002380D01*
X108854642Y-49002380D02*
X109187976Y-49526190D01*
X109521309Y-49002380D01*
X109854642Y-49621428D02*
X110616547Y-49621428D01*
X111092738Y-50002380D02*
X111092738Y-49002380D01*
X111664166Y-50002380D01*
X111664166Y-49002380D01*
X112711785Y-49907142D02*
X112664166Y-49954761D01*
X112521309Y-50002380D01*
X112426071Y-50002380D01*
X112283214Y-49954761D01*
X112187976Y-49859523D01*
X112140357Y-49764285D01*
X112092738Y-49573809D01*
X112092738Y-49430952D01*
X112140357Y-49240476D01*
X112187976Y-49145238D01*
X112283214Y-49050000D01*
X112426071Y-49002380D01*
X112521309Y-49002380D01*
X112664166Y-49050000D01*
X112711785Y-49097619D01*
X113140357Y-49621428D02*
X113902261Y-49621428D01*
X114330833Y-49954761D02*
X114473690Y-50002380D01*
X114711785Y-50002380D01*
X114807023Y-49954761D01*
X114854642Y-49907142D01*
X114902261Y-49811904D01*
X114902261Y-49716666D01*
X114854642Y-49621428D01*
X114807023Y-49573809D01*
X114711785Y-49526190D01*
X114521309Y-49478571D01*
X114426071Y-49430952D01*
X114378452Y-49383333D01*
X114330833Y-49288095D01*
X114330833Y-49192857D01*
X114378452Y-49097619D01*
X114426071Y-49050000D01*
X114521309Y-49002380D01*
X114759404Y-49002380D01*
X114902261Y-49050000D01*
X115283214Y-49716666D02*
X115759404Y-49716666D01*
X115187976Y-50002380D02*
X115521309Y-49002380D01*
X115854642Y-50002380D01*
X117378452Y-49335714D02*
X117378452Y-50002380D01*
X117140357Y-48954761D02*
X116902261Y-49669047D01*
X117521309Y-49669047D01*
X117902261Y-49907142D02*
X117949880Y-49954761D01*
X117902261Y-50002380D01*
X117854642Y-49954761D01*
X117902261Y-49907142D01*
X117902261Y-50002380D01*
X118568928Y-49002380D02*
X118664166Y-49002380D01*
X118759404Y-49050000D01*
X118807023Y-49097619D01*
X118854642Y-49192857D01*
X118902261Y-49383333D01*
X118902261Y-49621428D01*
X118854642Y-49811904D01*
X118807023Y-49907142D01*
X118759404Y-49954761D01*
X118664166Y-50002380D01*
X118568928Y-50002380D01*
X118473690Y-49954761D01*
X118426071Y-49907142D01*
X118378452Y-49811904D01*
X118330833Y-49621428D01*
X118330833Y-49383333D01*
X118378452Y-49192857D01*
X118426071Y-49097619D01*
X118473690Y-49050000D01*
X118568928Y-49002380D01*
D11*
%TO.C,R1*%
X107027064Y-57965000D02*
X106572936Y-57965000D01*
X107027064Y-59435000D02*
X106572936Y-59435000D01*
%TO.C,R5*%
X108865000Y-61960436D02*
X108865000Y-62414564D01*
X110335000Y-61960436D02*
X110335000Y-62414564D01*
%TO.C,J4*%
X108130000Y-61070000D02*
X105470000Y-61070000D01*
X108130000Y-63670000D02*
X108130000Y-61070000D01*
X105470000Y-63670000D02*
X105470000Y-61070000D01*
X108130000Y-63670000D02*
X105470000Y-63670000D01*
X108130000Y-64940000D02*
X108130000Y-66270000D01*
X108130000Y-66270000D02*
X106800000Y-66270000D01*
%TO.C,J3*%
X105470000Y-57170000D02*
X108130000Y-57170000D01*
X105470000Y-54570000D02*
X105470000Y-57170000D01*
X108130000Y-54570000D02*
X108130000Y-57170000D01*
X105470000Y-54570000D02*
X108130000Y-54570000D01*
X105470000Y-53300000D02*
X105470000Y-51970000D01*
X105470000Y-51970000D02*
X106800000Y-51970000D01*
%TO.C,J2*%
X119770000Y-70210000D02*
X122430000Y-70210000D01*
X119770000Y-65070000D02*
X119770000Y-70210000D01*
X122430000Y-65070000D02*
X122430000Y-70210000D01*
X119770000Y-65070000D02*
X122430000Y-65070000D01*
X119770000Y-63800000D02*
X119770000Y-62470000D01*
X119770000Y-62470000D02*
X121100000Y-62470000D01*
%TO.C,J1*%
X119770000Y-61530000D02*
X122430000Y-61530000D01*
X119770000Y-56390000D02*
X119770000Y-61530000D01*
X122430000Y-56390000D02*
X122430000Y-61530000D01*
X119770000Y-56390000D02*
X122430000Y-56390000D01*
X119770000Y-55120000D02*
X119770000Y-53790000D01*
X119770000Y-53790000D02*
X121100000Y-53790000D01*
%TO.C,R4*%
X117465000Y-66527064D02*
X117465000Y-66072936D01*
X118935000Y-66527064D02*
X118935000Y-66072936D01*
%TO.C,U2*%
X118360000Y-56395000D02*
X118360000Y-55920000D01*
X111140000Y-63140000D02*
X111615000Y-63140000D01*
X111140000Y-62665000D02*
X111140000Y-63140000D01*
X111140000Y-55920000D02*
X111615000Y-55920000D01*
X111140000Y-56395000D02*
X111140000Y-55920000D01*
X118360000Y-63140000D02*
X117885000Y-63140000D01*
X118360000Y-62665000D02*
X118360000Y-63140000D01*
%TO.C,R3*%
X116935000Y-66527064D02*
X116935000Y-66072936D01*
X115465000Y-66527064D02*
X115465000Y-66072936D01*
%TO.C,C3*%
X115335000Y-53861252D02*
X115335000Y-53338748D01*
X113865000Y-53861252D02*
X113865000Y-53338748D01*
D12*
%TO.C,U1*%
X114250000Y-70600000D02*
X113050000Y-70600000D01*
X112700000Y-67632000D02*
X112700000Y-70568000D01*
X112000000Y-67632000D02*
X112700000Y-67632000D01*
X112000000Y-70568000D02*
X112000000Y-67632000D01*
X112700000Y-70568000D02*
X112000000Y-70568000D01*
D11*
%TO.C,C5*%
X107061252Y-68585000D02*
X106538748Y-68585000D01*
X107061252Y-67115000D02*
X106538748Y-67115000D01*
%TO.C,R2*%
X110335000Y-65814564D02*
X110335000Y-65360436D01*
X108865000Y-65814564D02*
X108865000Y-65360436D01*
%TO.C,Q1*%
X110920000Y-66210000D02*
X110920000Y-64750000D01*
X114080000Y-66210000D02*
X114080000Y-64050000D01*
X114080000Y-66210000D02*
X113150000Y-66210000D01*
X110920000Y-66210000D02*
X111850000Y-66210000D01*
%TO.C,C6*%
X108611252Y-69165000D02*
X108088748Y-69165000D01*
X108611252Y-70635000D02*
X108088748Y-70635000D01*
%TO.C,C1*%
X116238748Y-70635000D02*
X116761252Y-70635000D01*
X116238748Y-69165000D02*
X116761252Y-69165000D01*
%TO.C,C4*%
X113235000Y-53861252D02*
X113235000Y-53338748D01*
X111765000Y-53861252D02*
X111765000Y-53338748D01*
%TO.C,C2*%
X108865000Y-56388748D02*
X108865000Y-56911252D01*
X110335000Y-56388748D02*
X110335000Y-56911252D01*
%TO.C,R1*%
D10*
X108866666Y-59311904D02*
X108600000Y-58930952D01*
X108409523Y-59311904D02*
X108409523Y-58511904D01*
X108714285Y-58511904D01*
X108790476Y-58550000D01*
X108828571Y-58588095D01*
X108866666Y-58664285D01*
X108866666Y-58778571D01*
X108828571Y-58854761D01*
X108790476Y-58892857D01*
X108714285Y-58930952D01*
X108409523Y-58930952D01*
X109628571Y-59311904D02*
X109171428Y-59311904D01*
X109400000Y-59311904D02*
X109400000Y-58511904D01*
X109323809Y-58626190D01*
X109247619Y-58702380D01*
X109171428Y-58740476D01*
%TO.C,R5*%
X108516666Y-60611904D02*
X108250000Y-60230952D01*
X108059523Y-60611904D02*
X108059523Y-59811904D01*
X108364285Y-59811904D01*
X108440476Y-59850000D01*
X108478571Y-59888095D01*
X108516666Y-59964285D01*
X108516666Y-60078571D01*
X108478571Y-60154761D01*
X108440476Y-60192857D01*
X108364285Y-60230952D01*
X108059523Y-60230952D01*
X109240476Y-59811904D02*
X108859523Y-59811904D01*
X108821428Y-60192857D01*
X108859523Y-60154761D01*
X108935714Y-60116666D01*
X109126190Y-60116666D01*
X109202380Y-60154761D01*
X109240476Y-60192857D01*
X109278571Y-60269047D01*
X109278571Y-60459523D01*
X109240476Y-60535714D01*
X109202380Y-60573809D01*
X109126190Y-60611904D01*
X108935714Y-60611904D01*
X108859523Y-60573809D01*
X108821428Y-60535714D01*
%TO.C,J4*%
X105933333Y-60011904D02*
X105933333Y-60583333D01*
X105895238Y-60697619D01*
X105819047Y-60773809D01*
X105704761Y-60811904D01*
X105628571Y-60811904D01*
X106657142Y-60278571D02*
X106657142Y-60811904D01*
X106466666Y-59973809D02*
X106276190Y-60545238D01*
X106771428Y-60545238D01*
%TO.C,J3*%
X108583333Y-52311904D02*
X108583333Y-52883333D01*
X108545238Y-52997619D01*
X108469047Y-53073809D01*
X108354761Y-53111904D01*
X108278571Y-53111904D01*
X108888095Y-52311904D02*
X109383333Y-52311904D01*
X109116666Y-52616666D01*
X109230952Y-52616666D01*
X109307142Y-52654761D01*
X109345238Y-52692857D01*
X109383333Y-52769047D01*
X109383333Y-52959523D01*
X109345238Y-53035714D01*
X109307142Y-53073809D01*
X109230952Y-53111904D01*
X109002380Y-53111904D01*
X108926190Y-53073809D01*
X108888095Y-53035714D01*
%TO.C,J2*%
X118733333Y-68311904D02*
X118733333Y-68883333D01*
X118695238Y-68997619D01*
X118619047Y-69073809D01*
X118504761Y-69111904D01*
X118428571Y-69111904D01*
X119076190Y-68388095D02*
X119114285Y-68350000D01*
X119190476Y-68311904D01*
X119380952Y-68311904D01*
X119457142Y-68350000D01*
X119495238Y-68388095D01*
X119533333Y-68464285D01*
X119533333Y-68540476D01*
X119495238Y-68654761D01*
X119038095Y-69111904D01*
X119533333Y-69111904D01*
%TO.C,J1*%
X120833333Y-52351904D02*
X120833333Y-52923333D01*
X120795238Y-53037619D01*
X120719047Y-53113809D01*
X120604761Y-53151904D01*
X120528571Y-53151904D01*
X121633333Y-53151904D02*
X121176190Y-53151904D01*
X121404761Y-53151904D02*
X121404761Y-52351904D01*
X121328571Y-52466190D01*
X121252380Y-52542380D01*
X121176190Y-52580476D01*
%TO.C,R4*%
X118266666Y-64511904D02*
X118000000Y-64130952D01*
X117809523Y-64511904D02*
X117809523Y-63711904D01*
X118114285Y-63711904D01*
X118190476Y-63750000D01*
X118228571Y-63788095D01*
X118266666Y-63864285D01*
X118266666Y-63978571D01*
X118228571Y-64054761D01*
X118190476Y-64092857D01*
X118114285Y-64130952D01*
X117809523Y-64130952D01*
X118952380Y-63978571D02*
X118952380Y-64511904D01*
X118761904Y-63673809D02*
X118571428Y-64245238D01*
X119066666Y-64245238D01*
%TO.C,U2*%
X116340476Y-54411904D02*
X116340476Y-55059523D01*
X116378571Y-55135714D01*
X116416666Y-55173809D01*
X116492857Y-55211904D01*
X116645238Y-55211904D01*
X116721428Y-55173809D01*
X116759523Y-55135714D01*
X116797619Y-55059523D01*
X116797619Y-54411904D01*
X117140476Y-54488095D02*
X117178571Y-54450000D01*
X117254761Y-54411904D01*
X117445238Y-54411904D01*
X117521428Y-54450000D01*
X117559523Y-54488095D01*
X117597619Y-54564285D01*
X117597619Y-54640476D01*
X117559523Y-54754761D01*
X117102380Y-55211904D01*
X117597619Y-55211904D01*
%TO.C,R3*%
X115716666Y-64611904D02*
X115450000Y-64230952D01*
X115259523Y-64611904D02*
X115259523Y-63811904D01*
X115564285Y-63811904D01*
X115640476Y-63850000D01*
X115678571Y-63888095D01*
X115716666Y-63964285D01*
X115716666Y-64078571D01*
X115678571Y-64154761D01*
X115640476Y-64192857D01*
X115564285Y-64230952D01*
X115259523Y-64230952D01*
X115983333Y-63811904D02*
X116478571Y-63811904D01*
X116211904Y-64116666D01*
X116326190Y-64116666D01*
X116402380Y-64154761D01*
X116440476Y-64192857D01*
X116478571Y-64269047D01*
X116478571Y-64459523D01*
X116440476Y-64535714D01*
X116402380Y-64573809D01*
X116326190Y-64611904D01*
X116097619Y-64611904D01*
X116021428Y-64573809D01*
X115983333Y-64535714D01*
%TO.C,C3*%
X114566666Y-51935714D02*
X114528571Y-51973809D01*
X114414285Y-52011904D01*
X114338095Y-52011904D01*
X114223809Y-51973809D01*
X114147619Y-51897619D01*
X114109523Y-51821428D01*
X114071428Y-51669047D01*
X114071428Y-51554761D01*
X114109523Y-51402380D01*
X114147619Y-51326190D01*
X114223809Y-51250000D01*
X114338095Y-51211904D01*
X114414285Y-51211904D01*
X114528571Y-51250000D01*
X114566666Y-51288095D01*
X114833333Y-51211904D02*
X115328571Y-51211904D01*
X115061904Y-51516666D01*
X115176190Y-51516666D01*
X115252380Y-51554761D01*
X115290476Y-51592857D01*
X115328571Y-51669047D01*
X115328571Y-51859523D01*
X115290476Y-51935714D01*
X115252380Y-51973809D01*
X115176190Y-52011904D01*
X114947619Y-52011904D01*
X114871428Y-51973809D01*
X114833333Y-51935714D01*
%TO.C,U1*%
X114361904Y-69059523D02*
X115009523Y-69059523D01*
X115085714Y-69021428D01*
X115123809Y-68983333D01*
X115161904Y-68907142D01*
X115161904Y-68754761D01*
X115123809Y-68678571D01*
X115085714Y-68640476D01*
X115009523Y-68602380D01*
X114361904Y-68602380D01*
X115161904Y-67802380D02*
X115161904Y-68259523D01*
X115161904Y-68030952D02*
X114361904Y-68030952D01*
X114476190Y-68107142D01*
X114552380Y-68183333D01*
X114590476Y-68259523D01*
%TO.C,C5*%
X108866666Y-67935714D02*
X108828571Y-67973809D01*
X108714285Y-68011904D01*
X108638095Y-68011904D01*
X108523809Y-67973809D01*
X108447619Y-67897619D01*
X108409523Y-67821428D01*
X108371428Y-67669047D01*
X108371428Y-67554761D01*
X108409523Y-67402380D01*
X108447619Y-67326190D01*
X108523809Y-67250000D01*
X108638095Y-67211904D01*
X108714285Y-67211904D01*
X108828571Y-67250000D01*
X108866666Y-67288095D01*
X109590476Y-67211904D02*
X109209523Y-67211904D01*
X109171428Y-67592857D01*
X109209523Y-67554761D01*
X109285714Y-67516666D01*
X109476190Y-67516666D01*
X109552380Y-67554761D01*
X109590476Y-67592857D01*
X109628571Y-67669047D01*
X109628571Y-67859523D01*
X109590476Y-67935714D01*
X109552380Y-67973809D01*
X109476190Y-68011904D01*
X109285714Y-68011904D01*
X109209523Y-67973809D01*
X109171428Y-67935714D01*
%TO.C,R2*%
X110011904Y-65770833D02*
X109630952Y-66037500D01*
X110011904Y-66227976D02*
X109211904Y-66227976D01*
X109211904Y-65923214D01*
X109250000Y-65847023D01*
X109288095Y-65808928D01*
X109364285Y-65770833D01*
X109478571Y-65770833D01*
X109554761Y-65808928D01*
X109592857Y-65847023D01*
X109630952Y-65923214D01*
X109630952Y-66227976D01*
X109288095Y-65466071D02*
X109250000Y-65427976D01*
X109211904Y-65351785D01*
X109211904Y-65161309D01*
X109250000Y-65085119D01*
X109288095Y-65047023D01*
X109364285Y-65008928D01*
X109440476Y-65008928D01*
X109554761Y-65047023D01*
X110011904Y-65504166D01*
X110011904Y-65008928D01*
%TO.C,Q1*%
X113623809Y-67288095D02*
X113547619Y-67250000D01*
X113471428Y-67173809D01*
X113357142Y-67059523D01*
X113280952Y-67021428D01*
X113204761Y-67021428D01*
X113242857Y-67211904D02*
X113166666Y-67173809D01*
X113090476Y-67097619D01*
X113052380Y-66945238D01*
X113052380Y-66678571D01*
X113090476Y-66526190D01*
X113166666Y-66450000D01*
X113242857Y-66411904D01*
X113395238Y-66411904D01*
X113471428Y-66450000D01*
X113547619Y-66526190D01*
X113585714Y-66678571D01*
X113585714Y-66945238D01*
X113547619Y-67097619D01*
X113471428Y-67173809D01*
X113395238Y-67211904D01*
X113242857Y-67211904D01*
X114347619Y-67211904D02*
X113890476Y-67211904D01*
X114119047Y-67211904D02*
X114119047Y-66411904D01*
X114042857Y-66526190D01*
X113966666Y-66602380D01*
X113890476Y-66640476D01*
%TO.C,C6*%
X105566666Y-70435714D02*
X105528571Y-70473809D01*
X105414285Y-70511904D01*
X105338095Y-70511904D01*
X105223809Y-70473809D01*
X105147619Y-70397619D01*
X105109523Y-70321428D01*
X105071428Y-70169047D01*
X105071428Y-70054761D01*
X105109523Y-69902380D01*
X105147619Y-69826190D01*
X105223809Y-69750000D01*
X105338095Y-69711904D01*
X105414285Y-69711904D01*
X105528571Y-69750000D01*
X105566666Y-69788095D01*
X106252380Y-69711904D02*
X106100000Y-69711904D01*
X106023809Y-69750000D01*
X105985714Y-69788095D01*
X105909523Y-69902380D01*
X105871428Y-70054761D01*
X105871428Y-70359523D01*
X105909523Y-70435714D01*
X105947619Y-70473809D01*
X106023809Y-70511904D01*
X106176190Y-70511904D01*
X106252380Y-70473809D01*
X106290476Y-70435714D01*
X106328571Y-70359523D01*
X106328571Y-70169047D01*
X106290476Y-70092857D01*
X106252380Y-70054761D01*
X106176190Y-70016666D01*
X106023809Y-70016666D01*
X105947619Y-70054761D01*
X105909523Y-70092857D01*
X105871428Y-70169047D01*
%TO.C,C1*%
X116366666Y-68885714D02*
X116328571Y-68923809D01*
X116214285Y-68961904D01*
X116138095Y-68961904D01*
X116023809Y-68923809D01*
X115947619Y-68847619D01*
X115909523Y-68771428D01*
X115871428Y-68619047D01*
X115871428Y-68504761D01*
X115909523Y-68352380D01*
X115947619Y-68276190D01*
X116023809Y-68200000D01*
X116138095Y-68161904D01*
X116214285Y-68161904D01*
X116328571Y-68200000D01*
X116366666Y-68238095D01*
X117128571Y-68961904D02*
X116671428Y-68961904D01*
X116900000Y-68961904D02*
X116900000Y-68161904D01*
X116823809Y-68276190D01*
X116747619Y-68352380D01*
X116671428Y-68390476D01*
%TO.C,C4*%
X112366666Y-51935714D02*
X112328571Y-51973809D01*
X112214285Y-52011904D01*
X112138095Y-52011904D01*
X112023809Y-51973809D01*
X111947619Y-51897619D01*
X111909523Y-51821428D01*
X111871428Y-51669047D01*
X111871428Y-51554761D01*
X111909523Y-51402380D01*
X111947619Y-51326190D01*
X112023809Y-51250000D01*
X112138095Y-51211904D01*
X112214285Y-51211904D01*
X112328571Y-51250000D01*
X112366666Y-51288095D01*
X113052380Y-51478571D02*
X113052380Y-52011904D01*
X112861904Y-51173809D02*
X112671428Y-51745238D01*
X113166666Y-51745238D01*
%TO.C,C2*%
X109466666Y-54685714D02*
X109428571Y-54723809D01*
X109314285Y-54761904D01*
X109238095Y-54761904D01*
X109123809Y-54723809D01*
X109047619Y-54647619D01*
X109009523Y-54571428D01*
X108971428Y-54419047D01*
X108971428Y-54304761D01*
X109009523Y-54152380D01*
X109047619Y-54076190D01*
X109123809Y-54000000D01*
X109238095Y-53961904D01*
X109314285Y-53961904D01*
X109428571Y-54000000D01*
X109466666Y-54038095D01*
X109771428Y-54038095D02*
X109809523Y-54000000D01*
X109885714Y-53961904D01*
X110076190Y-53961904D01*
X110152380Y-54000000D01*
X110190476Y-54038095D01*
X110228571Y-54114285D01*
X110228571Y-54190476D01*
X110190476Y-54304761D01*
X109733333Y-54761904D01*
X110228571Y-54761904D01*
%TD*%
M02*
