%FSLAX45Y45*%
G04 Gerber Fmt 4.5, Leading zero omitted, Abs format (unit mm)*
G04 Created by KiCad (PCBNEW (5.1.10-1-10_14)) date 2021-11-01 10:51:18*
%MOMM*%
%LPD*%
G01*
G04 APERTURE LIST*
%TA.AperFunction,Profile*%
%ADD10C,0.050000*%
%TD*%
%ADD11C,0.200000*%
%ADD12C,0.300000*%
G04 APERTURE END LIST*
D10*
X10460000Y-7110000D02*
X10460000Y-4510000D01*
X12330000Y-7110000D02*
X10460000Y-7110000D01*
X12330000Y-4510000D02*
X12330000Y-7110000D01*
X10460000Y-4510000D02*
X12330000Y-4510000D01*
D11*
D12*
X10743928Y-7578214D02*
X10743928Y-7278214D01*
X10815357Y-7278214D01*
X10858214Y-7292500D01*
X10886786Y-7321071D01*
X10901071Y-7349643D01*
X10915357Y-7406786D01*
X10915357Y-7449643D01*
X10901071Y-7506786D01*
X10886786Y-7535357D01*
X10858214Y-7563929D01*
X10815357Y-7578214D01*
X10743928Y-7578214D01*
X11043928Y-7578214D02*
X11043928Y-7378214D01*
X11043928Y-7435357D02*
X11058214Y-7406786D01*
X11072500Y-7392500D01*
X11101071Y-7378214D01*
X11129643Y-7378214D01*
X11229643Y-7578214D02*
X11229643Y-7378214D01*
X11229643Y-7278214D02*
X11215357Y-7292500D01*
X11229643Y-7306786D01*
X11243928Y-7292500D01*
X11229643Y-7278214D01*
X11229643Y-7306786D01*
X11415357Y-7578214D02*
X11386786Y-7563929D01*
X11372500Y-7535357D01*
X11372500Y-7278214D01*
X11572500Y-7578214D02*
X11543928Y-7563929D01*
X11529643Y-7535357D01*
X11529643Y-7278214D01*
X11915357Y-7578214D02*
X11915357Y-7278214D01*
X12015357Y-7492500D01*
X12115357Y-7278214D01*
X12115357Y-7578214D01*
X12386786Y-7578214D02*
X12386786Y-7421071D01*
X12372500Y-7392500D01*
X12343928Y-7378214D01*
X12286786Y-7378214D01*
X12258214Y-7392500D01*
X12386786Y-7563929D02*
X12358214Y-7578214D01*
X12286786Y-7578214D01*
X12258214Y-7563929D01*
X12243928Y-7535357D01*
X12243928Y-7506786D01*
X12258214Y-7478214D01*
X12286786Y-7463929D01*
X12358214Y-7463929D01*
X12386786Y-7449643D01*
X12529643Y-7378214D02*
X12529643Y-7678214D01*
X12529643Y-7392500D02*
X12558214Y-7378214D01*
X12615357Y-7378214D01*
X12643928Y-7392500D01*
X12658214Y-7406786D01*
X12672500Y-7435357D01*
X12672500Y-7521071D01*
X12658214Y-7549643D01*
X12643928Y-7563929D01*
X12615357Y-7578214D01*
X12558214Y-7578214D01*
X12529643Y-7563929D01*
X12801071Y-7549643D02*
X12815357Y-7563929D01*
X12801071Y-7578214D01*
X12786786Y-7563929D01*
X12801071Y-7549643D01*
X12801071Y-7578214D01*
X12801071Y-7392500D02*
X12815357Y-7406786D01*
X12801071Y-7421071D01*
X12786786Y-7406786D01*
X12801071Y-7392500D01*
X12801071Y-7421071D01*
M02*
