%TF.GenerationSoftware,KiCad,Pcbnew,(5.1.10-1-10_14)*%
%TF.CreationDate,2021-11-01T10:51:15+01:00*%
%TF.ProjectId,esp32-wled-pcb,65737033-322d-4776-9c65-642d7063622e,rev?*%
%TF.SameCoordinates,Original*%
%TF.FileFunction,Soldermask,Top*%
%TF.FilePolarity,Negative*%
%FSLAX46Y46*%
G04 Gerber Fmt 4.6, Leading zero omitted, Abs format (unit mm)*
G04 Created by KiCad (PCBNEW (5.1.10-1-10_14)) date 2021-11-01 10:51:15*
%MOMM*%
%LPD*%
G01*
G04 APERTURE LIST*
%ADD10O,1.700000X1.700000*%
%ADD11R,1.700000X1.700000*%
%ADD12R,5.300000X5.300000*%
%ADD13R,1.200000X0.600000*%
%ADD14R,0.800000X0.900000*%
G04 APERTURE END LIST*
%TO.C,R1*%
G36*
G01*
X106400000Y-58249998D02*
X106400000Y-59150002D01*
G75*
G02*
X106150002Y-59400000I-249998J0D01*
G01*
X105624998Y-59400000D01*
G75*
G02*
X105375000Y-59150002I0J249998D01*
G01*
X105375000Y-58249998D01*
G75*
G02*
X105624998Y-58000000I249998J0D01*
G01*
X106150002Y-58000000D01*
G75*
G02*
X106400000Y-58249998I0J-249998D01*
G01*
G37*
G36*
G01*
X108225000Y-58249998D02*
X108225000Y-59150002D01*
G75*
G02*
X107975002Y-59400000I-249998J0D01*
G01*
X107449998Y-59400000D01*
G75*
G02*
X107200000Y-59150002I0J249998D01*
G01*
X107200000Y-58249998D01*
G75*
G02*
X107449998Y-58000000I249998J0D01*
G01*
X107975002Y-58000000D01*
G75*
G02*
X108225000Y-58249998I0J-249998D01*
G01*
G37*
%TD*%
%TO.C,R5*%
G36*
G01*
X109149998Y-62587500D02*
X110050002Y-62587500D01*
G75*
G02*
X110300000Y-62837498I0J-249998D01*
G01*
X110300000Y-63362502D01*
G75*
G02*
X110050002Y-63612500I-249998J0D01*
G01*
X109149998Y-63612500D01*
G75*
G02*
X108900000Y-63362502I0J249998D01*
G01*
X108900000Y-62837498D01*
G75*
G02*
X109149998Y-62587500I249998J0D01*
G01*
G37*
G36*
G01*
X109149998Y-60762500D02*
X110050002Y-60762500D01*
G75*
G02*
X110300000Y-61012498I0J-249998D01*
G01*
X110300000Y-61537502D01*
G75*
G02*
X110050002Y-61787500I-249998J0D01*
G01*
X109149998Y-61787500D01*
G75*
G02*
X108900000Y-61537502I0J249998D01*
G01*
X108900000Y-61012498D01*
G75*
G02*
X109149998Y-60762500I249998J0D01*
G01*
G37*
%TD*%
D10*
%TO.C,J4*%
X106800000Y-62400000D03*
D11*
X106800000Y-64940000D03*
%TD*%
D10*
%TO.C,J3*%
X106800000Y-55840000D03*
D11*
X106800000Y-53300000D03*
%TD*%
D10*
%TO.C,J2*%
X121100000Y-68880000D03*
X121100000Y-66340000D03*
D11*
X121100000Y-63800000D03*
%TD*%
D10*
%TO.C,J1*%
X121100000Y-60200000D03*
X121100000Y-57660000D03*
D11*
X121100000Y-55120000D03*
%TD*%
%TO.C,R4*%
G36*
G01*
X118650001Y-65900000D02*
X117749999Y-65900000D01*
G75*
G02*
X117500000Y-65650001I0J249999D01*
G01*
X117500000Y-65124999D01*
G75*
G02*
X117749999Y-64875000I249999J0D01*
G01*
X118650001Y-64875000D01*
G75*
G02*
X118900000Y-65124999I0J-249999D01*
G01*
X118900000Y-65650001D01*
G75*
G02*
X118650001Y-65900000I-249999J0D01*
G01*
G37*
G36*
G01*
X118650001Y-67725000D02*
X117749999Y-67725000D01*
G75*
G02*
X117500000Y-67475001I0J249999D01*
G01*
X117500000Y-66949999D01*
G75*
G02*
X117749999Y-66700000I249999J0D01*
G01*
X118650001Y-66700000D01*
G75*
G02*
X118900000Y-66949999I0J-249999D01*
G01*
X118900000Y-67475001D01*
G75*
G02*
X118650001Y-67725000I-249999J0D01*
G01*
G37*
%TD*%
D12*
%TO.C,U2*%
X114750000Y-59530000D03*
G36*
G01*
X117862500Y-56655000D02*
X118537500Y-56655000D01*
G75*
G02*
X118600000Y-56717500I0J-62500D01*
G01*
X118600000Y-56842500D01*
G75*
G02*
X118537500Y-56905000I-62500J0D01*
G01*
X117862500Y-56905000D01*
G75*
G02*
X117800000Y-56842500I0J62500D01*
G01*
X117800000Y-56717500D01*
G75*
G02*
X117862500Y-56655000I62500J0D01*
G01*
G37*
G36*
G01*
X117862500Y-57155000D02*
X118537500Y-57155000D01*
G75*
G02*
X118600000Y-57217500I0J-62500D01*
G01*
X118600000Y-57342500D01*
G75*
G02*
X118537500Y-57405000I-62500J0D01*
G01*
X117862500Y-57405000D01*
G75*
G02*
X117800000Y-57342500I0J62500D01*
G01*
X117800000Y-57217500D01*
G75*
G02*
X117862500Y-57155000I62500J0D01*
G01*
G37*
G36*
G01*
X117862500Y-57655000D02*
X118537500Y-57655000D01*
G75*
G02*
X118600000Y-57717500I0J-62500D01*
G01*
X118600000Y-57842500D01*
G75*
G02*
X118537500Y-57905000I-62500J0D01*
G01*
X117862500Y-57905000D01*
G75*
G02*
X117800000Y-57842500I0J62500D01*
G01*
X117800000Y-57717500D01*
G75*
G02*
X117862500Y-57655000I62500J0D01*
G01*
G37*
G36*
G01*
X117862500Y-58155000D02*
X118537500Y-58155000D01*
G75*
G02*
X118600000Y-58217500I0J-62500D01*
G01*
X118600000Y-58342500D01*
G75*
G02*
X118537500Y-58405000I-62500J0D01*
G01*
X117862500Y-58405000D01*
G75*
G02*
X117800000Y-58342500I0J62500D01*
G01*
X117800000Y-58217500D01*
G75*
G02*
X117862500Y-58155000I62500J0D01*
G01*
G37*
G36*
G01*
X117862500Y-58655000D02*
X118537500Y-58655000D01*
G75*
G02*
X118600000Y-58717500I0J-62500D01*
G01*
X118600000Y-58842500D01*
G75*
G02*
X118537500Y-58905000I-62500J0D01*
G01*
X117862500Y-58905000D01*
G75*
G02*
X117800000Y-58842500I0J62500D01*
G01*
X117800000Y-58717500D01*
G75*
G02*
X117862500Y-58655000I62500J0D01*
G01*
G37*
G36*
G01*
X117862500Y-59155000D02*
X118537500Y-59155000D01*
G75*
G02*
X118600000Y-59217500I0J-62500D01*
G01*
X118600000Y-59342500D01*
G75*
G02*
X118537500Y-59405000I-62500J0D01*
G01*
X117862500Y-59405000D01*
G75*
G02*
X117800000Y-59342500I0J62500D01*
G01*
X117800000Y-59217500D01*
G75*
G02*
X117862500Y-59155000I62500J0D01*
G01*
G37*
G36*
G01*
X117862500Y-59655000D02*
X118537500Y-59655000D01*
G75*
G02*
X118600000Y-59717500I0J-62500D01*
G01*
X118600000Y-59842500D01*
G75*
G02*
X118537500Y-59905000I-62500J0D01*
G01*
X117862500Y-59905000D01*
G75*
G02*
X117800000Y-59842500I0J62500D01*
G01*
X117800000Y-59717500D01*
G75*
G02*
X117862500Y-59655000I62500J0D01*
G01*
G37*
G36*
G01*
X117862500Y-60155000D02*
X118537500Y-60155000D01*
G75*
G02*
X118600000Y-60217500I0J-62500D01*
G01*
X118600000Y-60342500D01*
G75*
G02*
X118537500Y-60405000I-62500J0D01*
G01*
X117862500Y-60405000D01*
G75*
G02*
X117800000Y-60342500I0J62500D01*
G01*
X117800000Y-60217500D01*
G75*
G02*
X117862500Y-60155000I62500J0D01*
G01*
G37*
G36*
G01*
X117862500Y-60655000D02*
X118537500Y-60655000D01*
G75*
G02*
X118600000Y-60717500I0J-62500D01*
G01*
X118600000Y-60842500D01*
G75*
G02*
X118537500Y-60905000I-62500J0D01*
G01*
X117862500Y-60905000D01*
G75*
G02*
X117800000Y-60842500I0J62500D01*
G01*
X117800000Y-60717500D01*
G75*
G02*
X117862500Y-60655000I62500J0D01*
G01*
G37*
G36*
G01*
X117862500Y-61155000D02*
X118537500Y-61155000D01*
G75*
G02*
X118600000Y-61217500I0J-62500D01*
G01*
X118600000Y-61342500D01*
G75*
G02*
X118537500Y-61405000I-62500J0D01*
G01*
X117862500Y-61405000D01*
G75*
G02*
X117800000Y-61342500I0J62500D01*
G01*
X117800000Y-61217500D01*
G75*
G02*
X117862500Y-61155000I62500J0D01*
G01*
G37*
G36*
G01*
X117862500Y-61655000D02*
X118537500Y-61655000D01*
G75*
G02*
X118600000Y-61717500I0J-62500D01*
G01*
X118600000Y-61842500D01*
G75*
G02*
X118537500Y-61905000I-62500J0D01*
G01*
X117862500Y-61905000D01*
G75*
G02*
X117800000Y-61842500I0J62500D01*
G01*
X117800000Y-61717500D01*
G75*
G02*
X117862500Y-61655000I62500J0D01*
G01*
G37*
G36*
G01*
X117862500Y-62155000D02*
X118537500Y-62155000D01*
G75*
G02*
X118600000Y-62217500I0J-62500D01*
G01*
X118600000Y-62342500D01*
G75*
G02*
X118537500Y-62405000I-62500J0D01*
G01*
X117862500Y-62405000D01*
G75*
G02*
X117800000Y-62342500I0J62500D01*
G01*
X117800000Y-62217500D01*
G75*
G02*
X117862500Y-62155000I62500J0D01*
G01*
G37*
G36*
G01*
X117437500Y-62580000D02*
X117562500Y-62580000D01*
G75*
G02*
X117625000Y-62642500I0J-62500D01*
G01*
X117625000Y-63317500D01*
G75*
G02*
X117562500Y-63380000I-62500J0D01*
G01*
X117437500Y-63380000D01*
G75*
G02*
X117375000Y-63317500I0J62500D01*
G01*
X117375000Y-62642500D01*
G75*
G02*
X117437500Y-62580000I62500J0D01*
G01*
G37*
G36*
G01*
X116937500Y-62580000D02*
X117062500Y-62580000D01*
G75*
G02*
X117125000Y-62642500I0J-62500D01*
G01*
X117125000Y-63317500D01*
G75*
G02*
X117062500Y-63380000I-62500J0D01*
G01*
X116937500Y-63380000D01*
G75*
G02*
X116875000Y-63317500I0J62500D01*
G01*
X116875000Y-62642500D01*
G75*
G02*
X116937500Y-62580000I62500J0D01*
G01*
G37*
G36*
G01*
X116437500Y-62580000D02*
X116562500Y-62580000D01*
G75*
G02*
X116625000Y-62642500I0J-62500D01*
G01*
X116625000Y-63317500D01*
G75*
G02*
X116562500Y-63380000I-62500J0D01*
G01*
X116437500Y-63380000D01*
G75*
G02*
X116375000Y-63317500I0J62500D01*
G01*
X116375000Y-62642500D01*
G75*
G02*
X116437500Y-62580000I62500J0D01*
G01*
G37*
G36*
G01*
X115937500Y-62580000D02*
X116062500Y-62580000D01*
G75*
G02*
X116125000Y-62642500I0J-62500D01*
G01*
X116125000Y-63317500D01*
G75*
G02*
X116062500Y-63380000I-62500J0D01*
G01*
X115937500Y-63380000D01*
G75*
G02*
X115875000Y-63317500I0J62500D01*
G01*
X115875000Y-62642500D01*
G75*
G02*
X115937500Y-62580000I62500J0D01*
G01*
G37*
G36*
G01*
X115437500Y-62580000D02*
X115562500Y-62580000D01*
G75*
G02*
X115625000Y-62642500I0J-62500D01*
G01*
X115625000Y-63317500D01*
G75*
G02*
X115562500Y-63380000I-62500J0D01*
G01*
X115437500Y-63380000D01*
G75*
G02*
X115375000Y-63317500I0J62500D01*
G01*
X115375000Y-62642500D01*
G75*
G02*
X115437500Y-62580000I62500J0D01*
G01*
G37*
G36*
G01*
X114937500Y-62580000D02*
X115062500Y-62580000D01*
G75*
G02*
X115125000Y-62642500I0J-62500D01*
G01*
X115125000Y-63317500D01*
G75*
G02*
X115062500Y-63380000I-62500J0D01*
G01*
X114937500Y-63380000D01*
G75*
G02*
X114875000Y-63317500I0J62500D01*
G01*
X114875000Y-62642500D01*
G75*
G02*
X114937500Y-62580000I62500J0D01*
G01*
G37*
G36*
G01*
X114437500Y-62580000D02*
X114562500Y-62580000D01*
G75*
G02*
X114625000Y-62642500I0J-62500D01*
G01*
X114625000Y-63317500D01*
G75*
G02*
X114562500Y-63380000I-62500J0D01*
G01*
X114437500Y-63380000D01*
G75*
G02*
X114375000Y-63317500I0J62500D01*
G01*
X114375000Y-62642500D01*
G75*
G02*
X114437500Y-62580000I62500J0D01*
G01*
G37*
G36*
G01*
X113937500Y-62580000D02*
X114062500Y-62580000D01*
G75*
G02*
X114125000Y-62642500I0J-62500D01*
G01*
X114125000Y-63317500D01*
G75*
G02*
X114062500Y-63380000I-62500J0D01*
G01*
X113937500Y-63380000D01*
G75*
G02*
X113875000Y-63317500I0J62500D01*
G01*
X113875000Y-62642500D01*
G75*
G02*
X113937500Y-62580000I62500J0D01*
G01*
G37*
G36*
G01*
X113437500Y-62580000D02*
X113562500Y-62580000D01*
G75*
G02*
X113625000Y-62642500I0J-62500D01*
G01*
X113625000Y-63317500D01*
G75*
G02*
X113562500Y-63380000I-62500J0D01*
G01*
X113437500Y-63380000D01*
G75*
G02*
X113375000Y-63317500I0J62500D01*
G01*
X113375000Y-62642500D01*
G75*
G02*
X113437500Y-62580000I62500J0D01*
G01*
G37*
G36*
G01*
X112937500Y-62580000D02*
X113062500Y-62580000D01*
G75*
G02*
X113125000Y-62642500I0J-62500D01*
G01*
X113125000Y-63317500D01*
G75*
G02*
X113062500Y-63380000I-62500J0D01*
G01*
X112937500Y-63380000D01*
G75*
G02*
X112875000Y-63317500I0J62500D01*
G01*
X112875000Y-62642500D01*
G75*
G02*
X112937500Y-62580000I62500J0D01*
G01*
G37*
G36*
G01*
X112437500Y-62580000D02*
X112562500Y-62580000D01*
G75*
G02*
X112625000Y-62642500I0J-62500D01*
G01*
X112625000Y-63317500D01*
G75*
G02*
X112562500Y-63380000I-62500J0D01*
G01*
X112437500Y-63380000D01*
G75*
G02*
X112375000Y-63317500I0J62500D01*
G01*
X112375000Y-62642500D01*
G75*
G02*
X112437500Y-62580000I62500J0D01*
G01*
G37*
G36*
G01*
X111937500Y-62580000D02*
X112062500Y-62580000D01*
G75*
G02*
X112125000Y-62642500I0J-62500D01*
G01*
X112125000Y-63317500D01*
G75*
G02*
X112062500Y-63380000I-62500J0D01*
G01*
X111937500Y-63380000D01*
G75*
G02*
X111875000Y-63317500I0J62500D01*
G01*
X111875000Y-62642500D01*
G75*
G02*
X111937500Y-62580000I62500J0D01*
G01*
G37*
G36*
G01*
X110962500Y-62155000D02*
X111637500Y-62155000D01*
G75*
G02*
X111700000Y-62217500I0J-62500D01*
G01*
X111700000Y-62342500D01*
G75*
G02*
X111637500Y-62405000I-62500J0D01*
G01*
X110962500Y-62405000D01*
G75*
G02*
X110900000Y-62342500I0J62500D01*
G01*
X110900000Y-62217500D01*
G75*
G02*
X110962500Y-62155000I62500J0D01*
G01*
G37*
G36*
G01*
X110962500Y-61655000D02*
X111637500Y-61655000D01*
G75*
G02*
X111700000Y-61717500I0J-62500D01*
G01*
X111700000Y-61842500D01*
G75*
G02*
X111637500Y-61905000I-62500J0D01*
G01*
X110962500Y-61905000D01*
G75*
G02*
X110900000Y-61842500I0J62500D01*
G01*
X110900000Y-61717500D01*
G75*
G02*
X110962500Y-61655000I62500J0D01*
G01*
G37*
G36*
G01*
X110962500Y-61155000D02*
X111637500Y-61155000D01*
G75*
G02*
X111700000Y-61217500I0J-62500D01*
G01*
X111700000Y-61342500D01*
G75*
G02*
X111637500Y-61405000I-62500J0D01*
G01*
X110962500Y-61405000D01*
G75*
G02*
X110900000Y-61342500I0J62500D01*
G01*
X110900000Y-61217500D01*
G75*
G02*
X110962500Y-61155000I62500J0D01*
G01*
G37*
G36*
G01*
X110962500Y-60655000D02*
X111637500Y-60655000D01*
G75*
G02*
X111700000Y-60717500I0J-62500D01*
G01*
X111700000Y-60842500D01*
G75*
G02*
X111637500Y-60905000I-62500J0D01*
G01*
X110962500Y-60905000D01*
G75*
G02*
X110900000Y-60842500I0J62500D01*
G01*
X110900000Y-60717500D01*
G75*
G02*
X110962500Y-60655000I62500J0D01*
G01*
G37*
G36*
G01*
X110962500Y-60155000D02*
X111637500Y-60155000D01*
G75*
G02*
X111700000Y-60217500I0J-62500D01*
G01*
X111700000Y-60342500D01*
G75*
G02*
X111637500Y-60405000I-62500J0D01*
G01*
X110962500Y-60405000D01*
G75*
G02*
X110900000Y-60342500I0J62500D01*
G01*
X110900000Y-60217500D01*
G75*
G02*
X110962500Y-60155000I62500J0D01*
G01*
G37*
G36*
G01*
X110962500Y-59655000D02*
X111637500Y-59655000D01*
G75*
G02*
X111700000Y-59717500I0J-62500D01*
G01*
X111700000Y-59842500D01*
G75*
G02*
X111637500Y-59905000I-62500J0D01*
G01*
X110962500Y-59905000D01*
G75*
G02*
X110900000Y-59842500I0J62500D01*
G01*
X110900000Y-59717500D01*
G75*
G02*
X110962500Y-59655000I62500J0D01*
G01*
G37*
G36*
G01*
X110962500Y-59155000D02*
X111637500Y-59155000D01*
G75*
G02*
X111700000Y-59217500I0J-62500D01*
G01*
X111700000Y-59342500D01*
G75*
G02*
X111637500Y-59405000I-62500J0D01*
G01*
X110962500Y-59405000D01*
G75*
G02*
X110900000Y-59342500I0J62500D01*
G01*
X110900000Y-59217500D01*
G75*
G02*
X110962500Y-59155000I62500J0D01*
G01*
G37*
G36*
G01*
X110962500Y-58655000D02*
X111637500Y-58655000D01*
G75*
G02*
X111700000Y-58717500I0J-62500D01*
G01*
X111700000Y-58842500D01*
G75*
G02*
X111637500Y-58905000I-62500J0D01*
G01*
X110962500Y-58905000D01*
G75*
G02*
X110900000Y-58842500I0J62500D01*
G01*
X110900000Y-58717500D01*
G75*
G02*
X110962500Y-58655000I62500J0D01*
G01*
G37*
G36*
G01*
X110962500Y-58155000D02*
X111637500Y-58155000D01*
G75*
G02*
X111700000Y-58217500I0J-62500D01*
G01*
X111700000Y-58342500D01*
G75*
G02*
X111637500Y-58405000I-62500J0D01*
G01*
X110962500Y-58405000D01*
G75*
G02*
X110900000Y-58342500I0J62500D01*
G01*
X110900000Y-58217500D01*
G75*
G02*
X110962500Y-58155000I62500J0D01*
G01*
G37*
G36*
G01*
X110962500Y-57655000D02*
X111637500Y-57655000D01*
G75*
G02*
X111700000Y-57717500I0J-62500D01*
G01*
X111700000Y-57842500D01*
G75*
G02*
X111637500Y-57905000I-62500J0D01*
G01*
X110962500Y-57905000D01*
G75*
G02*
X110900000Y-57842500I0J62500D01*
G01*
X110900000Y-57717500D01*
G75*
G02*
X110962500Y-57655000I62500J0D01*
G01*
G37*
G36*
G01*
X110962500Y-57155000D02*
X111637500Y-57155000D01*
G75*
G02*
X111700000Y-57217500I0J-62500D01*
G01*
X111700000Y-57342500D01*
G75*
G02*
X111637500Y-57405000I-62500J0D01*
G01*
X110962500Y-57405000D01*
G75*
G02*
X110900000Y-57342500I0J62500D01*
G01*
X110900000Y-57217500D01*
G75*
G02*
X110962500Y-57155000I62500J0D01*
G01*
G37*
G36*
G01*
X110962500Y-56655000D02*
X111637500Y-56655000D01*
G75*
G02*
X111700000Y-56717500I0J-62500D01*
G01*
X111700000Y-56842500D01*
G75*
G02*
X111637500Y-56905000I-62500J0D01*
G01*
X110962500Y-56905000D01*
G75*
G02*
X110900000Y-56842500I0J62500D01*
G01*
X110900000Y-56717500D01*
G75*
G02*
X110962500Y-56655000I62500J0D01*
G01*
G37*
G36*
G01*
X111937500Y-55680000D02*
X112062500Y-55680000D01*
G75*
G02*
X112125000Y-55742500I0J-62500D01*
G01*
X112125000Y-56417500D01*
G75*
G02*
X112062500Y-56480000I-62500J0D01*
G01*
X111937500Y-56480000D01*
G75*
G02*
X111875000Y-56417500I0J62500D01*
G01*
X111875000Y-55742500D01*
G75*
G02*
X111937500Y-55680000I62500J0D01*
G01*
G37*
G36*
G01*
X112437500Y-55680000D02*
X112562500Y-55680000D01*
G75*
G02*
X112625000Y-55742500I0J-62500D01*
G01*
X112625000Y-56417500D01*
G75*
G02*
X112562500Y-56480000I-62500J0D01*
G01*
X112437500Y-56480000D01*
G75*
G02*
X112375000Y-56417500I0J62500D01*
G01*
X112375000Y-55742500D01*
G75*
G02*
X112437500Y-55680000I62500J0D01*
G01*
G37*
G36*
G01*
X112937500Y-55680000D02*
X113062500Y-55680000D01*
G75*
G02*
X113125000Y-55742500I0J-62500D01*
G01*
X113125000Y-56417500D01*
G75*
G02*
X113062500Y-56480000I-62500J0D01*
G01*
X112937500Y-56480000D01*
G75*
G02*
X112875000Y-56417500I0J62500D01*
G01*
X112875000Y-55742500D01*
G75*
G02*
X112937500Y-55680000I62500J0D01*
G01*
G37*
G36*
G01*
X113437500Y-55680000D02*
X113562500Y-55680000D01*
G75*
G02*
X113625000Y-55742500I0J-62500D01*
G01*
X113625000Y-56417500D01*
G75*
G02*
X113562500Y-56480000I-62500J0D01*
G01*
X113437500Y-56480000D01*
G75*
G02*
X113375000Y-56417500I0J62500D01*
G01*
X113375000Y-55742500D01*
G75*
G02*
X113437500Y-55680000I62500J0D01*
G01*
G37*
G36*
G01*
X113937500Y-55680000D02*
X114062500Y-55680000D01*
G75*
G02*
X114125000Y-55742500I0J-62500D01*
G01*
X114125000Y-56417500D01*
G75*
G02*
X114062500Y-56480000I-62500J0D01*
G01*
X113937500Y-56480000D01*
G75*
G02*
X113875000Y-56417500I0J62500D01*
G01*
X113875000Y-55742500D01*
G75*
G02*
X113937500Y-55680000I62500J0D01*
G01*
G37*
G36*
G01*
X114437500Y-55680000D02*
X114562500Y-55680000D01*
G75*
G02*
X114625000Y-55742500I0J-62500D01*
G01*
X114625000Y-56417500D01*
G75*
G02*
X114562500Y-56480000I-62500J0D01*
G01*
X114437500Y-56480000D01*
G75*
G02*
X114375000Y-56417500I0J62500D01*
G01*
X114375000Y-55742500D01*
G75*
G02*
X114437500Y-55680000I62500J0D01*
G01*
G37*
G36*
G01*
X114937500Y-55680000D02*
X115062500Y-55680000D01*
G75*
G02*
X115125000Y-55742500I0J-62500D01*
G01*
X115125000Y-56417500D01*
G75*
G02*
X115062500Y-56480000I-62500J0D01*
G01*
X114937500Y-56480000D01*
G75*
G02*
X114875000Y-56417500I0J62500D01*
G01*
X114875000Y-55742500D01*
G75*
G02*
X114937500Y-55680000I62500J0D01*
G01*
G37*
G36*
G01*
X115437500Y-55680000D02*
X115562500Y-55680000D01*
G75*
G02*
X115625000Y-55742500I0J-62500D01*
G01*
X115625000Y-56417500D01*
G75*
G02*
X115562500Y-56480000I-62500J0D01*
G01*
X115437500Y-56480000D01*
G75*
G02*
X115375000Y-56417500I0J62500D01*
G01*
X115375000Y-55742500D01*
G75*
G02*
X115437500Y-55680000I62500J0D01*
G01*
G37*
G36*
G01*
X115937500Y-55680000D02*
X116062500Y-55680000D01*
G75*
G02*
X116125000Y-55742500I0J-62500D01*
G01*
X116125000Y-56417500D01*
G75*
G02*
X116062500Y-56480000I-62500J0D01*
G01*
X115937500Y-56480000D01*
G75*
G02*
X115875000Y-56417500I0J62500D01*
G01*
X115875000Y-55742500D01*
G75*
G02*
X115937500Y-55680000I62500J0D01*
G01*
G37*
G36*
G01*
X116437500Y-55680000D02*
X116562500Y-55680000D01*
G75*
G02*
X116625000Y-55742500I0J-62500D01*
G01*
X116625000Y-56417500D01*
G75*
G02*
X116562500Y-56480000I-62500J0D01*
G01*
X116437500Y-56480000D01*
G75*
G02*
X116375000Y-56417500I0J62500D01*
G01*
X116375000Y-55742500D01*
G75*
G02*
X116437500Y-55680000I62500J0D01*
G01*
G37*
G36*
G01*
X116937500Y-55680000D02*
X117062500Y-55680000D01*
G75*
G02*
X117125000Y-55742500I0J-62500D01*
G01*
X117125000Y-56417500D01*
G75*
G02*
X117062500Y-56480000I-62500J0D01*
G01*
X116937500Y-56480000D01*
G75*
G02*
X116875000Y-56417500I0J62500D01*
G01*
X116875000Y-55742500D01*
G75*
G02*
X116937500Y-55680000I62500J0D01*
G01*
G37*
G36*
G01*
X117437500Y-55680000D02*
X117562500Y-55680000D01*
G75*
G02*
X117625000Y-55742500I0J-62500D01*
G01*
X117625000Y-56417500D01*
G75*
G02*
X117562500Y-56480000I-62500J0D01*
G01*
X117437500Y-56480000D01*
G75*
G02*
X117375000Y-56417500I0J62500D01*
G01*
X117375000Y-55742500D01*
G75*
G02*
X117437500Y-55680000I62500J0D01*
G01*
G37*
%TD*%
%TO.C,R3*%
G36*
G01*
X116650002Y-65900000D02*
X115749998Y-65900000D01*
G75*
G02*
X115500000Y-65650002I0J249998D01*
G01*
X115500000Y-65124998D01*
G75*
G02*
X115749998Y-64875000I249998J0D01*
G01*
X116650002Y-64875000D01*
G75*
G02*
X116900000Y-65124998I0J-249998D01*
G01*
X116900000Y-65650002D01*
G75*
G02*
X116650002Y-65900000I-249998J0D01*
G01*
G37*
G36*
G01*
X116650002Y-67725000D02*
X115749998Y-67725000D01*
G75*
G02*
X115500000Y-67475002I0J249998D01*
G01*
X115500000Y-66949998D01*
G75*
G02*
X115749998Y-66700000I249998J0D01*
G01*
X116650002Y-66700000D01*
G75*
G02*
X116900000Y-66949998I0J-249998D01*
G01*
X116900000Y-67475002D01*
G75*
G02*
X116650002Y-67725000I-249998J0D01*
G01*
G37*
%TD*%
%TO.C,C3*%
G36*
G01*
X115075000Y-53150000D02*
X114125000Y-53150000D01*
G75*
G02*
X113875000Y-52900000I0J250000D01*
G01*
X113875000Y-52400000D01*
G75*
G02*
X114125000Y-52150000I250000J0D01*
G01*
X115075000Y-52150000D01*
G75*
G02*
X115325000Y-52400000I0J-250000D01*
G01*
X115325000Y-52900000D01*
G75*
G02*
X115075000Y-53150000I-250000J0D01*
G01*
G37*
G36*
G01*
X115075000Y-55050000D02*
X114125000Y-55050000D01*
G75*
G02*
X113875000Y-54800000I0J250000D01*
G01*
X113875000Y-54300000D01*
G75*
G02*
X114125000Y-54050000I250000J0D01*
G01*
X115075000Y-54050000D01*
G75*
G02*
X115325000Y-54300000I0J-250000D01*
G01*
X115325000Y-54800000D01*
G75*
G02*
X115075000Y-55050000I-250000J0D01*
G01*
G37*
%TD*%
D13*
%TO.C,U1*%
X111050000Y-70050000D03*
X111050000Y-68150000D03*
X113650000Y-68150000D03*
X113650000Y-69100000D03*
X113650000Y-70050000D03*
%TD*%
%TO.C,C5*%
G36*
G01*
X106350000Y-67375000D02*
X106350000Y-68325000D01*
G75*
G02*
X106100000Y-68575000I-250000J0D01*
G01*
X105600000Y-68575000D01*
G75*
G02*
X105350000Y-68325000I0J250000D01*
G01*
X105350000Y-67375000D01*
G75*
G02*
X105600000Y-67125000I250000J0D01*
G01*
X106100000Y-67125000D01*
G75*
G02*
X106350000Y-67375000I0J-250000D01*
G01*
G37*
G36*
G01*
X108250000Y-67375000D02*
X108250000Y-68325000D01*
G75*
G02*
X108000000Y-68575000I-250000J0D01*
G01*
X107500000Y-68575000D01*
G75*
G02*
X107250000Y-68325000I0J250000D01*
G01*
X107250000Y-67375000D01*
G75*
G02*
X107500000Y-67125000I250000J0D01*
G01*
X108000000Y-67125000D01*
G75*
G02*
X108250000Y-67375000I0J-250000D01*
G01*
G37*
%TD*%
%TO.C,R2*%
G36*
G01*
X110050002Y-65187500D02*
X109149998Y-65187500D01*
G75*
G02*
X108900000Y-64937502I0J249998D01*
G01*
X108900000Y-64412498D01*
G75*
G02*
X109149998Y-64162500I249998J0D01*
G01*
X110050002Y-64162500D01*
G75*
G02*
X110300000Y-64412498I0J-249998D01*
G01*
X110300000Y-64937502D01*
G75*
G02*
X110050002Y-65187500I-249998J0D01*
G01*
G37*
G36*
G01*
X110050002Y-67012500D02*
X109149998Y-67012500D01*
G75*
G02*
X108900000Y-66762502I0J249998D01*
G01*
X108900000Y-66237498D01*
G75*
G02*
X109149998Y-65987500I249998J0D01*
G01*
X110050002Y-65987500D01*
G75*
G02*
X110300000Y-66237498I0J-249998D01*
G01*
X110300000Y-66762502D01*
G75*
G02*
X110050002Y-67012500I-249998J0D01*
G01*
G37*
%TD*%
D14*
%TO.C,Q1*%
X112500000Y-66450000D03*
X111550000Y-64450000D03*
X113450000Y-64450000D03*
%TD*%
%TO.C,C6*%
G36*
G01*
X107900000Y-69425000D02*
X107900000Y-70375000D01*
G75*
G02*
X107650000Y-70625000I-250000J0D01*
G01*
X107150000Y-70625000D01*
G75*
G02*
X106900000Y-70375000I0J250000D01*
G01*
X106900000Y-69425000D01*
G75*
G02*
X107150000Y-69175000I250000J0D01*
G01*
X107650000Y-69175000D01*
G75*
G02*
X107900000Y-69425000I0J-250000D01*
G01*
G37*
G36*
G01*
X109800000Y-69425000D02*
X109800000Y-70375000D01*
G75*
G02*
X109550000Y-70625000I-250000J0D01*
G01*
X109050000Y-70625000D01*
G75*
G02*
X108800000Y-70375000I0J250000D01*
G01*
X108800000Y-69425000D01*
G75*
G02*
X109050000Y-69175000I250000J0D01*
G01*
X109550000Y-69175000D01*
G75*
G02*
X109800000Y-69425000I0J-250000D01*
G01*
G37*
%TD*%
%TO.C,C1*%
G36*
G01*
X116950000Y-70375000D02*
X116950000Y-69425000D01*
G75*
G02*
X117200000Y-69175000I250000J0D01*
G01*
X117700000Y-69175000D01*
G75*
G02*
X117950000Y-69425000I0J-250000D01*
G01*
X117950000Y-70375000D01*
G75*
G02*
X117700000Y-70625000I-250000J0D01*
G01*
X117200000Y-70625000D01*
G75*
G02*
X116950000Y-70375000I0J250000D01*
G01*
G37*
G36*
G01*
X115050000Y-70375000D02*
X115050000Y-69425000D01*
G75*
G02*
X115300000Y-69175000I250000J0D01*
G01*
X115800000Y-69175000D01*
G75*
G02*
X116050000Y-69425000I0J-250000D01*
G01*
X116050000Y-70375000D01*
G75*
G02*
X115800000Y-70625000I-250000J0D01*
G01*
X115300000Y-70625000D01*
G75*
G02*
X115050000Y-70375000I0J250000D01*
G01*
G37*
%TD*%
%TO.C,C4*%
G36*
G01*
X112975000Y-53150000D02*
X112025000Y-53150000D01*
G75*
G02*
X111775000Y-52900000I0J250000D01*
G01*
X111775000Y-52400000D01*
G75*
G02*
X112025000Y-52150000I250000J0D01*
G01*
X112975000Y-52150000D01*
G75*
G02*
X113225000Y-52400000I0J-250000D01*
G01*
X113225000Y-52900000D01*
G75*
G02*
X112975000Y-53150000I-250000J0D01*
G01*
G37*
G36*
G01*
X112975000Y-55050000D02*
X112025000Y-55050000D01*
G75*
G02*
X111775000Y-54800000I0J250000D01*
G01*
X111775000Y-54300000D01*
G75*
G02*
X112025000Y-54050000I250000J0D01*
G01*
X112975000Y-54050000D01*
G75*
G02*
X113225000Y-54300000I0J-250000D01*
G01*
X113225000Y-54800000D01*
G75*
G02*
X112975000Y-55050000I-250000J0D01*
G01*
G37*
%TD*%
%TO.C,C2*%
G36*
G01*
X109125000Y-57100000D02*
X110075000Y-57100000D01*
G75*
G02*
X110325000Y-57350000I0J-250000D01*
G01*
X110325000Y-57850000D01*
G75*
G02*
X110075000Y-58100000I-250000J0D01*
G01*
X109125000Y-58100000D01*
G75*
G02*
X108875000Y-57850000I0J250000D01*
G01*
X108875000Y-57350000D01*
G75*
G02*
X109125000Y-57100000I250000J0D01*
G01*
G37*
G36*
G01*
X109125000Y-55200000D02*
X110075000Y-55200000D01*
G75*
G02*
X110325000Y-55450000I0J-250000D01*
G01*
X110325000Y-55950000D01*
G75*
G02*
X110075000Y-56200000I-250000J0D01*
G01*
X109125000Y-56200000D01*
G75*
G02*
X108875000Y-55950000I0J250000D01*
G01*
X108875000Y-55450000D01*
G75*
G02*
X109125000Y-55200000I250000J0D01*
G01*
G37*
%TD*%
M02*
