M48
; DRILL file {KiCad (5.1.10-1-10_14)} date Monday, November 01, 2021 at 10:51:17 AM
; FORMAT={-:-/ absolute / metric / decimal}
; #@! TF.CreationDate,2021-11-01T10:51:17+01:00
; #@! TF.GenerationSoftware,Kicad,Pcbnew,(5.1.10-1-10_14)
; #@! TF.FileFunction,Plated,1,2,PTH
FMAT,2
METRIC
T1C0.300
T2C0.400
T3C1.000
%
G90
G05
T1
X119.1Y-50.75
T2
X105.2Y-57.3
X105.35Y-69.15
X105.4Y-70.1
X105.5Y-65.0
X105.6Y-51.5
X105.6Y-60.3
X106.425Y-68.825
X106.6Y-69.9
X106.8Y-66.5
X107.15Y-60.7
X107.25Y-57.45
X108.0Y-51.55
X108.5Y-54.7
X108.51Y-62.3
X108.516Y-56.684
X109.35Y-51.5
X109.4Y-68.3
X109.5Y-53.7
X109.9Y-59.2
X110.8Y-69.05
X111.0Y-53.3
X111.1Y-66.95
X111.3Y-56.05
X111.45Y-51.5
X112.35Y-67.86
X112.35Y-69.1
X112.35Y-70.45
X112.65Y-58.475
X112.65Y-60.575
X113.55Y-51.5
X113.55Y-54.55
X113.7Y-57.425
X113.7Y-59.525
X113.7Y-61.625
X113.7Y-65.7
X114.65Y-64.2
X114.75Y-58.475
X114.75Y-60.575
X115.8Y-59.525
X115.8Y-61.625
X115.9Y-51.5
X115.9Y-52.6
X115.9Y-53.95
X116.85Y-60.575
X117.1Y-57.2
X117.2Y-64.2
X118.2Y-51.95
X118.2Y-52.9
X118.2Y-53.8
X118.2Y-54.7
X118.45Y-63.55
X118.6Y-70.05
X119.2Y-61.6
X119.215Y-58.5
X119.225Y-51.65
X119.4Y-62.9
X119.5Y-55.6
X119.5Y-66.3
X120.6Y-62.0
X120.8Y-51.55
X122.3Y-51.5
X122.3Y-62.0
X122.35Y-53.35
X122.6Y-70.4
T3
X106.8Y-53.3
X106.8Y-55.84
X106.8Y-62.4
X106.8Y-64.94
X121.1Y-55.12
X121.1Y-57.66
X121.1Y-60.2
X121.1Y-63.8
X121.1Y-66.34
X121.1Y-68.88
T0
M30
