%FSLAX45Y45*%
G04 Gerber Fmt 4.5, Leading zero omitted, Abs format (unit mm)*
G04 Created by KiCad (PCBNEW (5.1.10-1-10_14)) date 2021-11-01 10:51:18*
%MOMM*%
%LPD*%
G01*
G04 APERTURE LIST*
%TA.AperFunction,Profile*%
%ADD10C,0.050000*%
%TD*%
%ADD11C,0.200000*%
%ADD12C,0.300000*%
G04 APERTURE END LIST*
D10*
X10460000Y-7110000D02*
X10460000Y-4510000D01*
X12330000Y-7110000D02*
X10460000Y-7110000D01*
X12330000Y-4510000D02*
X12330000Y-7110000D01*
X10460000Y-4510000D02*
X12330000Y-4510000D01*
D11*
X11895000Y-5060000D02*
X11925000Y-5090000D01*
X11925000Y-5060000D02*
X11895000Y-5090000D01*
X10540000Y-5730000D02*
G75*
G03*
X10540000Y-5730000I-20000J0D01*
G01*
X10555000Y-6915000D02*
G75*
G03*
X10555000Y-6915000I-20000J0D01*
G01*
X10560000Y-7010000D02*
G75*
G03*
X10560000Y-7010000I-20000J0D01*
G01*
X10570000Y-6500000D02*
G75*
G03*
X10570000Y-6500000I-20000J0D01*
G01*
X10580000Y-5150000D02*
G75*
G03*
X10580000Y-5150000I-20000J0D01*
G01*
X10580000Y-6030000D02*
G75*
G03*
X10580000Y-6030000I-20000J0D01*
G01*
X10662500Y-6882500D02*
G75*
G03*
X10662500Y-6882500I-20000J0D01*
G01*
X10680000Y-6990000D02*
G75*
G03*
X10680000Y-6990000I-20000J0D01*
G01*
X10700000Y-6650000D02*
G75*
G03*
X10700000Y-6650000I-20000J0D01*
G01*
X10735000Y-6070000D02*
G75*
G03*
X10735000Y-6070000I-20000J0D01*
G01*
X10745000Y-5745000D02*
G75*
G03*
X10745000Y-5745000I-20000J0D01*
G01*
X10820000Y-5155000D02*
G75*
G03*
X10820000Y-5155000I-20000J0D01*
G01*
X10870000Y-5470000D02*
G75*
G03*
X10870000Y-5470000I-20000J0D01*
G01*
X10871000Y-6230000D02*
G75*
G03*
X10871000Y-6230000I-20000J0D01*
G01*
X10871563Y-5668437D02*
G75*
G03*
X10871563Y-5668437I-20000J0D01*
G01*
X10955000Y-5150000D02*
G75*
G03*
X10955000Y-5150000I-20000J0D01*
G01*
X10960000Y-6830000D02*
G75*
G03*
X10960000Y-6830000I-20000J0D01*
G01*
X10970000Y-5370000D02*
G75*
G03*
X10970000Y-5370000I-20000J0D01*
G01*
X11010000Y-5920000D02*
G75*
G03*
X11010000Y-5920000I-20000J0D01*
G01*
X11100000Y-6905000D02*
G75*
G03*
X11100000Y-6905000I-20000J0D01*
G01*
X11120000Y-5330000D02*
G75*
G03*
X11120000Y-5330000I-20000J0D01*
G01*
X11130000Y-6695000D02*
G75*
G03*
X11130000Y-6695000I-20000J0D01*
G01*
X11150000Y-5605000D02*
G75*
G03*
X11150000Y-5605000I-20000J0D01*
G01*
X11165000Y-5150000D02*
G75*
G03*
X11165000Y-5150000I-20000J0D01*
G01*
X11255000Y-6785981D02*
G75*
G03*
X11255000Y-6785981I-20000J0D01*
G01*
X11255000Y-6910000D02*
G75*
G03*
X11255000Y-6910000I-20000J0D01*
G01*
X11255000Y-7045000D02*
G75*
G03*
X11255000Y-7045000I-20000J0D01*
G01*
X11285000Y-5847500D02*
G75*
G03*
X11285000Y-5847500I-20000J0D01*
G01*
X11285000Y-6057500D02*
G75*
G03*
X11285000Y-6057500I-20000J0D01*
G01*
X11375000Y-5150000D02*
G75*
G03*
X11375000Y-5150000I-20000J0D01*
G01*
X11375000Y-5455000D02*
G75*
G03*
X11375000Y-5455000I-20000J0D01*
G01*
X11390000Y-5742500D02*
G75*
G03*
X11390000Y-5742500I-20000J0D01*
G01*
X11390000Y-5952500D02*
G75*
G03*
X11390000Y-5952500I-20000J0D01*
G01*
X11390000Y-6162500D02*
G75*
G03*
X11390000Y-6162500I-20000J0D01*
G01*
X11390000Y-6570000D02*
G75*
G03*
X11390000Y-6570000I-20000J0D01*
G01*
X11485000Y-6420000D02*
G75*
G03*
X11485000Y-6420000I-20000J0D01*
G01*
X11495000Y-5847500D02*
G75*
G03*
X11495000Y-5847500I-20000J0D01*
G01*
X11495000Y-6057500D02*
G75*
G03*
X11495000Y-6057500I-20000J0D01*
G01*
X11600000Y-5952500D02*
G75*
G03*
X11600000Y-5952500I-20000J0D01*
G01*
X11600000Y-6162500D02*
G75*
G03*
X11600000Y-6162500I-20000J0D01*
G01*
X11610000Y-5150000D02*
G75*
G03*
X11610000Y-5150000I-20000J0D01*
G01*
X11610000Y-5260000D02*
G75*
G03*
X11610000Y-5260000I-20000J0D01*
G01*
X11610000Y-5395000D02*
G75*
G03*
X11610000Y-5395000I-20000J0D01*
G01*
X11705000Y-6057500D02*
G75*
G03*
X11705000Y-6057500I-20000J0D01*
G01*
X11730000Y-5720000D02*
G75*
G03*
X11730000Y-5720000I-20000J0D01*
G01*
X11740000Y-6420000D02*
G75*
G03*
X11740000Y-6420000I-20000J0D01*
G01*
X11840000Y-5195000D02*
G75*
G03*
X11840000Y-5195000I-20000J0D01*
G01*
X11840000Y-5290000D02*
G75*
G03*
X11840000Y-5290000I-20000J0D01*
G01*
X11840000Y-5380000D02*
G75*
G03*
X11840000Y-5380000I-20000J0D01*
G01*
X11840000Y-5470000D02*
G75*
G03*
X11840000Y-5470000I-20000J0D01*
G01*
X11865000Y-6355000D02*
G75*
G03*
X11865000Y-6355000I-20000J0D01*
G01*
X11880000Y-7005000D02*
G75*
G03*
X11880000Y-7005000I-20000J0D01*
G01*
X11940000Y-6160000D02*
G75*
G03*
X11940000Y-6160000I-20000J0D01*
G01*
X11941499Y-5850000D02*
G75*
G03*
X11941499Y-5850000I-20000J0D01*
G01*
X11942500Y-5165000D02*
G75*
G03*
X11942500Y-5165000I-20000J0D01*
G01*
X11960000Y-6290000D02*
G75*
G03*
X11960000Y-6290000I-20000J0D01*
G01*
X11970000Y-5560000D02*
G75*
G03*
X11970000Y-5560000I-20000J0D01*
G01*
X11970000Y-6630000D02*
G75*
G03*
X11970000Y-6630000I-20000J0D01*
G01*
X12080000Y-6200000D02*
G75*
G03*
X12080000Y-6200000I-20000J0D01*
G01*
X12100000Y-5155000D02*
G75*
G03*
X12100000Y-5155000I-20000J0D01*
G01*
X12250000Y-5150000D02*
G75*
G03*
X12250000Y-5150000I-20000J0D01*
G01*
X12250000Y-6200000D02*
G75*
G03*
X12250000Y-6200000I-20000J0D01*
G01*
X12255000Y-5335000D02*
G75*
G03*
X12255000Y-5335000I-20000J0D01*
G01*
X12280000Y-7040000D02*
G75*
G03*
X12280000Y-7040000I-20000J0D01*
G01*
X10680000Y-5280000D02*
X10680000Y-5380000D01*
X10630000Y-5330000D02*
X10730000Y-5330000D01*
X10680000Y-5534000D02*
X10680000Y-5634000D01*
X10630000Y-5584000D02*
X10730000Y-5584000D01*
X10680000Y-6190000D02*
X10680000Y-6290000D01*
X10630000Y-6240000D02*
X10730000Y-6240000D01*
X10680000Y-6444000D02*
X10680000Y-6544000D01*
X10630000Y-6494000D02*
X10730000Y-6494000D01*
X12110000Y-5462000D02*
X12110000Y-5562000D01*
X12060000Y-5512000D02*
X12160000Y-5512000D01*
X12110000Y-5716000D02*
X12110000Y-5816000D01*
X12060000Y-5766000D02*
X12160000Y-5766000D01*
X12110000Y-5970000D02*
X12110000Y-6070000D01*
X12060000Y-6020000D02*
X12160000Y-6020000D01*
X12110000Y-6330000D02*
X12110000Y-6430000D01*
X12060000Y-6380000D02*
X12160000Y-6380000D01*
X12110000Y-6584000D02*
X12110000Y-6684000D01*
X12060000Y-6634000D02*
X12160000Y-6634000D01*
X12110000Y-6838000D02*
X12110000Y-6938000D01*
X12060000Y-6888000D02*
X12160000Y-6888000D01*
D12*
X10743928Y-7578214D02*
X10743928Y-7278214D01*
X10815357Y-7278214D01*
X10858214Y-7292500D01*
X10886786Y-7321071D01*
X10901071Y-7349643D01*
X10915357Y-7406786D01*
X10915357Y-7449643D01*
X10901071Y-7506786D01*
X10886786Y-7535357D01*
X10858214Y-7563929D01*
X10815357Y-7578214D01*
X10743928Y-7578214D01*
X11043928Y-7578214D02*
X11043928Y-7378214D01*
X11043928Y-7435357D02*
X11058214Y-7406786D01*
X11072500Y-7392500D01*
X11101071Y-7378214D01*
X11129643Y-7378214D01*
X11229643Y-7578214D02*
X11229643Y-7378214D01*
X11229643Y-7278214D02*
X11215357Y-7292500D01*
X11229643Y-7306786D01*
X11243928Y-7292500D01*
X11229643Y-7278214D01*
X11229643Y-7306786D01*
X11415357Y-7578214D02*
X11386786Y-7563929D01*
X11372500Y-7535357D01*
X11372500Y-7278214D01*
X11572500Y-7578214D02*
X11543928Y-7563929D01*
X11529643Y-7535357D01*
X11529643Y-7278214D01*
X11915357Y-7578214D02*
X11915357Y-7278214D01*
X12015357Y-7492500D01*
X12115357Y-7278214D01*
X12115357Y-7578214D01*
X12386786Y-7578214D02*
X12386786Y-7421071D01*
X12372500Y-7392500D01*
X12343928Y-7378214D01*
X12286786Y-7378214D01*
X12258214Y-7392500D01*
X12386786Y-7563929D02*
X12358214Y-7578214D01*
X12286786Y-7578214D01*
X12258214Y-7563929D01*
X12243928Y-7535357D01*
X12243928Y-7506786D01*
X12258214Y-7478214D01*
X12286786Y-7463929D01*
X12358214Y-7463929D01*
X12386786Y-7449643D01*
X12529643Y-7378214D02*
X12529643Y-7678214D01*
X12529643Y-7392500D02*
X12558214Y-7378214D01*
X12615357Y-7378214D01*
X12643928Y-7392500D01*
X12658214Y-7406786D01*
X12672500Y-7435357D01*
X12672500Y-7521071D01*
X12658214Y-7549643D01*
X12643928Y-7563929D01*
X12615357Y-7578214D01*
X12558214Y-7578214D01*
X12529643Y-7563929D01*
X12801071Y-7549643D02*
X12815357Y-7563929D01*
X12801071Y-7578214D01*
X12786786Y-7563929D01*
X12801071Y-7549643D01*
X12801071Y-7578214D01*
X12801071Y-7392500D02*
X12815357Y-7406786D01*
X12801071Y-7421071D01*
X12786786Y-7406786D01*
X12801071Y-7392500D01*
X12801071Y-7421071D01*
X10427500Y-8057500D02*
X10457500Y-8087500D01*
X10457500Y-8057500D02*
X10427500Y-8087500D01*
X10801071Y-7908214D02*
X10829643Y-7908214D01*
X10858214Y-7922500D01*
X10872500Y-7936786D01*
X10886786Y-7965357D01*
X10901071Y-8022500D01*
X10901071Y-8093929D01*
X10886786Y-8151071D01*
X10872500Y-8179643D01*
X10858214Y-8193929D01*
X10829643Y-8208214D01*
X10801071Y-8208214D01*
X10772500Y-8193929D01*
X10758214Y-8179643D01*
X10743928Y-8151071D01*
X10729643Y-8093929D01*
X10729643Y-8022500D01*
X10743928Y-7965357D01*
X10758214Y-7936786D01*
X10772500Y-7922500D01*
X10801071Y-7908214D01*
X11029643Y-8179643D02*
X11043928Y-8193929D01*
X11029643Y-8208214D01*
X11015357Y-8193929D01*
X11029643Y-8179643D01*
X11029643Y-8208214D01*
X11143928Y-7908214D02*
X11329643Y-7908214D01*
X11229643Y-8022500D01*
X11272500Y-8022500D01*
X11301071Y-8036786D01*
X11315357Y-8051071D01*
X11329643Y-8079643D01*
X11329643Y-8151071D01*
X11315357Y-8179643D01*
X11301071Y-8193929D01*
X11272500Y-8208214D01*
X11186786Y-8208214D01*
X11158214Y-8193929D01*
X11143928Y-8179643D01*
X11515357Y-7908214D02*
X11543928Y-7908214D01*
X11572500Y-7922500D01*
X11586786Y-7936786D01*
X11601071Y-7965357D01*
X11615357Y-8022500D01*
X11615357Y-8093929D01*
X11601071Y-8151071D01*
X11586786Y-8179643D01*
X11572500Y-8193929D01*
X11543928Y-8208214D01*
X11515357Y-8208214D01*
X11486786Y-8193929D01*
X11472500Y-8179643D01*
X11458214Y-8151071D01*
X11443928Y-8093929D01*
X11443928Y-8022500D01*
X11458214Y-7965357D01*
X11472500Y-7936786D01*
X11486786Y-7922500D01*
X11515357Y-7908214D01*
X11801071Y-7908214D02*
X11829643Y-7908214D01*
X11858214Y-7922500D01*
X11872500Y-7936786D01*
X11886786Y-7965357D01*
X11901071Y-8022500D01*
X11901071Y-8093929D01*
X11886786Y-8151071D01*
X11872500Y-8179643D01*
X11858214Y-8193929D01*
X11829643Y-8208214D01*
X11801071Y-8208214D01*
X11772500Y-8193929D01*
X11758214Y-8179643D01*
X11743928Y-8151071D01*
X11729643Y-8093929D01*
X11729643Y-8022500D01*
X11743928Y-7965357D01*
X11758214Y-7936786D01*
X11772500Y-7922500D01*
X11801071Y-7908214D01*
X12029643Y-8208214D02*
X12029643Y-8008214D01*
X12029643Y-8036786D02*
X12043928Y-8022500D01*
X12072500Y-8008214D01*
X12115357Y-8008214D01*
X12143928Y-8022500D01*
X12158214Y-8051071D01*
X12158214Y-8208214D01*
X12158214Y-8051071D02*
X12172500Y-8022500D01*
X12201071Y-8008214D01*
X12243928Y-8008214D01*
X12272500Y-8022500D01*
X12286786Y-8051071D01*
X12286786Y-8208214D01*
X12429643Y-8208214D02*
X12429643Y-8008214D01*
X12429643Y-8036786D02*
X12443928Y-8022500D01*
X12472500Y-8008214D01*
X12515357Y-8008214D01*
X12543928Y-8022500D01*
X12558214Y-8051071D01*
X12558214Y-8208214D01*
X12558214Y-8051071D02*
X12572500Y-8022500D01*
X12601071Y-8008214D01*
X12643928Y-8008214D01*
X12672500Y-8022500D01*
X12686786Y-8051071D01*
X12686786Y-8208214D01*
X13272500Y-7893929D02*
X13015357Y-8279643D01*
X13658214Y-7908214D02*
X13686786Y-7908214D01*
X13715357Y-7922500D01*
X13729643Y-7936786D01*
X13743928Y-7965357D01*
X13758214Y-8022500D01*
X13758214Y-8093929D01*
X13743928Y-8151071D01*
X13729643Y-8179643D01*
X13715357Y-8193929D01*
X13686786Y-8208214D01*
X13658214Y-8208214D01*
X13629643Y-8193929D01*
X13615357Y-8179643D01*
X13601071Y-8151071D01*
X13586786Y-8093929D01*
X13586786Y-8022500D01*
X13601071Y-7965357D01*
X13615357Y-7936786D01*
X13629643Y-7922500D01*
X13658214Y-7908214D01*
X13886786Y-8179643D02*
X13901071Y-8193929D01*
X13886786Y-8208214D01*
X13872500Y-8193929D01*
X13886786Y-8179643D01*
X13886786Y-8208214D01*
X14086786Y-7908214D02*
X14115357Y-7908214D01*
X14143928Y-7922500D01*
X14158214Y-7936786D01*
X14172500Y-7965357D01*
X14186786Y-8022500D01*
X14186786Y-8093929D01*
X14172500Y-8151071D01*
X14158214Y-8179643D01*
X14143928Y-8193929D01*
X14115357Y-8208214D01*
X14086786Y-8208214D01*
X14058214Y-8193929D01*
X14043928Y-8179643D01*
X14029643Y-8151071D01*
X14015357Y-8093929D01*
X14015357Y-8022500D01*
X14029643Y-7965357D01*
X14043928Y-7936786D01*
X14058214Y-7922500D01*
X14086786Y-7908214D01*
X14472500Y-8208214D02*
X14301071Y-8208214D01*
X14386786Y-8208214D02*
X14386786Y-7908214D01*
X14358214Y-7951071D01*
X14329643Y-7979643D01*
X14301071Y-7993929D01*
X14758214Y-8208214D02*
X14586786Y-8208214D01*
X14672500Y-8208214D02*
X14672500Y-7908214D01*
X14643928Y-7951071D01*
X14615357Y-7979643D01*
X14586786Y-7993929D01*
X14929643Y-8036786D02*
X14901071Y-8022500D01*
X14886786Y-8008214D01*
X14872500Y-7979643D01*
X14872500Y-7965357D01*
X14886786Y-7936786D01*
X14901071Y-7922500D01*
X14929643Y-7908214D01*
X14986786Y-7908214D01*
X15015357Y-7922500D01*
X15029643Y-7936786D01*
X15043928Y-7965357D01*
X15043928Y-7979643D01*
X15029643Y-8008214D01*
X15015357Y-8022500D01*
X14986786Y-8036786D01*
X14929643Y-8036786D01*
X14901071Y-8051071D01*
X14886786Y-8065357D01*
X14872500Y-8093929D01*
X14872500Y-8151071D01*
X14886786Y-8179643D01*
X14901071Y-8193929D01*
X14929643Y-8208214D01*
X14986786Y-8208214D01*
X15015357Y-8193929D01*
X15029643Y-8179643D01*
X15043928Y-8151071D01*
X15043928Y-8093929D01*
X15029643Y-8065357D01*
X15015357Y-8051071D01*
X14986786Y-8036786D01*
X15158214Y-7908214D02*
X15158214Y-7965357D01*
X15272500Y-7908214D02*
X15272500Y-7965357D01*
X15715357Y-8322500D02*
X15701071Y-8308214D01*
X15672500Y-8265357D01*
X15658214Y-8236786D01*
X15643928Y-8193929D01*
X15629643Y-8122500D01*
X15629643Y-8065357D01*
X15643928Y-7993929D01*
X15658214Y-7951071D01*
X15672500Y-7922500D01*
X15701071Y-7879643D01*
X15715357Y-7865357D01*
X15986786Y-8208214D02*
X15815357Y-8208214D01*
X15901071Y-8208214D02*
X15901071Y-7908214D01*
X15872500Y-7951071D01*
X15843928Y-7979643D01*
X15815357Y-7993929D01*
X16343928Y-8208214D02*
X16343928Y-7908214D01*
X16472500Y-8208214D02*
X16472500Y-8051071D01*
X16458214Y-8022500D01*
X16429643Y-8008214D01*
X16386786Y-8008214D01*
X16358214Y-8022500D01*
X16343928Y-8036786D01*
X16658214Y-8208214D02*
X16629643Y-8193929D01*
X16615357Y-8179643D01*
X16601071Y-8151071D01*
X16601071Y-8065357D01*
X16615357Y-8036786D01*
X16629643Y-8022500D01*
X16658214Y-8008214D01*
X16701071Y-8008214D01*
X16729643Y-8022500D01*
X16743928Y-8036786D01*
X16758214Y-8065357D01*
X16758214Y-8151071D01*
X16743928Y-8179643D01*
X16729643Y-8193929D01*
X16701071Y-8208214D01*
X16658214Y-8208214D01*
X16929643Y-8208214D02*
X16901071Y-8193929D01*
X16886786Y-8165357D01*
X16886786Y-7908214D01*
X17158214Y-8193929D02*
X17129643Y-8208214D01*
X17072500Y-8208214D01*
X17043928Y-8193929D01*
X17029643Y-8165357D01*
X17029643Y-8051071D01*
X17043928Y-8022500D01*
X17072500Y-8008214D01*
X17129643Y-8008214D01*
X17158214Y-8022500D01*
X17172500Y-8051071D01*
X17172500Y-8079643D01*
X17029643Y-8108214D01*
X17272500Y-8322500D02*
X17286786Y-8308214D01*
X17315357Y-8265357D01*
X17329643Y-8236786D01*
X17343928Y-8193929D01*
X17358214Y-8122500D01*
X17358214Y-8065357D01*
X17343928Y-7993929D01*
X17329643Y-7951071D01*
X17315357Y-7922500D01*
X17286786Y-7879643D01*
X17272500Y-7865357D01*
X10457500Y-8468500D02*
G75*
G03*
X10457500Y-8468500I-20000J0D01*
G01*
X10801071Y-8304214D02*
X10829643Y-8304214D01*
X10858214Y-8318500D01*
X10872500Y-8332786D01*
X10886786Y-8361357D01*
X10901071Y-8418500D01*
X10901071Y-8489929D01*
X10886786Y-8547072D01*
X10872500Y-8575643D01*
X10858214Y-8589929D01*
X10829643Y-8604214D01*
X10801071Y-8604214D01*
X10772500Y-8589929D01*
X10758214Y-8575643D01*
X10743928Y-8547072D01*
X10729643Y-8489929D01*
X10729643Y-8418500D01*
X10743928Y-8361357D01*
X10758214Y-8332786D01*
X10772500Y-8318500D01*
X10801071Y-8304214D01*
X11029643Y-8575643D02*
X11043928Y-8589929D01*
X11029643Y-8604214D01*
X11015357Y-8589929D01*
X11029643Y-8575643D01*
X11029643Y-8604214D01*
X11301071Y-8404214D02*
X11301071Y-8604214D01*
X11229643Y-8289929D02*
X11158214Y-8504214D01*
X11343928Y-8504214D01*
X11515357Y-8304214D02*
X11543928Y-8304214D01*
X11572500Y-8318500D01*
X11586786Y-8332786D01*
X11601071Y-8361357D01*
X11615357Y-8418500D01*
X11615357Y-8489929D01*
X11601071Y-8547072D01*
X11586786Y-8575643D01*
X11572500Y-8589929D01*
X11543928Y-8604214D01*
X11515357Y-8604214D01*
X11486786Y-8589929D01*
X11472500Y-8575643D01*
X11458214Y-8547072D01*
X11443928Y-8489929D01*
X11443928Y-8418500D01*
X11458214Y-8361357D01*
X11472500Y-8332786D01*
X11486786Y-8318500D01*
X11515357Y-8304214D01*
X11801071Y-8304214D02*
X11829643Y-8304214D01*
X11858214Y-8318500D01*
X11872500Y-8332786D01*
X11886786Y-8361357D01*
X11901071Y-8418500D01*
X11901071Y-8489929D01*
X11886786Y-8547072D01*
X11872500Y-8575643D01*
X11858214Y-8589929D01*
X11829643Y-8604214D01*
X11801071Y-8604214D01*
X11772500Y-8589929D01*
X11758214Y-8575643D01*
X11743928Y-8547072D01*
X11729643Y-8489929D01*
X11729643Y-8418500D01*
X11743928Y-8361357D01*
X11758214Y-8332786D01*
X11772500Y-8318500D01*
X11801071Y-8304214D01*
X12029643Y-8604214D02*
X12029643Y-8404214D01*
X12029643Y-8432786D02*
X12043928Y-8418500D01*
X12072500Y-8404214D01*
X12115357Y-8404214D01*
X12143928Y-8418500D01*
X12158214Y-8447072D01*
X12158214Y-8604214D01*
X12158214Y-8447072D02*
X12172500Y-8418500D01*
X12201071Y-8404214D01*
X12243928Y-8404214D01*
X12272500Y-8418500D01*
X12286786Y-8447072D01*
X12286786Y-8604214D01*
X12429643Y-8604214D02*
X12429643Y-8404214D01*
X12429643Y-8432786D02*
X12443928Y-8418500D01*
X12472500Y-8404214D01*
X12515357Y-8404214D01*
X12543928Y-8418500D01*
X12558214Y-8447072D01*
X12558214Y-8604214D01*
X12558214Y-8447072D02*
X12572500Y-8418500D01*
X12601071Y-8404214D01*
X12643928Y-8404214D01*
X12672500Y-8418500D01*
X12686786Y-8447072D01*
X12686786Y-8604214D01*
X13272500Y-8289929D02*
X13015357Y-8675643D01*
X13658214Y-8304214D02*
X13686786Y-8304214D01*
X13715357Y-8318500D01*
X13729643Y-8332786D01*
X13743928Y-8361357D01*
X13758214Y-8418500D01*
X13758214Y-8489929D01*
X13743928Y-8547072D01*
X13729643Y-8575643D01*
X13715357Y-8589929D01*
X13686786Y-8604214D01*
X13658214Y-8604214D01*
X13629643Y-8589929D01*
X13615357Y-8575643D01*
X13601071Y-8547072D01*
X13586786Y-8489929D01*
X13586786Y-8418500D01*
X13601071Y-8361357D01*
X13615357Y-8332786D01*
X13629643Y-8318500D01*
X13658214Y-8304214D01*
X13886786Y-8575643D02*
X13901071Y-8589929D01*
X13886786Y-8604214D01*
X13872500Y-8589929D01*
X13886786Y-8575643D01*
X13886786Y-8604214D01*
X14086786Y-8304214D02*
X14115357Y-8304214D01*
X14143928Y-8318500D01*
X14158214Y-8332786D01*
X14172500Y-8361357D01*
X14186786Y-8418500D01*
X14186786Y-8489929D01*
X14172500Y-8547072D01*
X14158214Y-8575643D01*
X14143928Y-8589929D01*
X14115357Y-8604214D01*
X14086786Y-8604214D01*
X14058214Y-8589929D01*
X14043928Y-8575643D01*
X14029643Y-8547072D01*
X14015357Y-8489929D01*
X14015357Y-8418500D01*
X14029643Y-8361357D01*
X14043928Y-8332786D01*
X14058214Y-8318500D01*
X14086786Y-8304214D01*
X14472500Y-8604214D02*
X14301071Y-8604214D01*
X14386786Y-8604214D02*
X14386786Y-8304214D01*
X14358214Y-8347071D01*
X14329643Y-8375643D01*
X14301071Y-8389929D01*
X14743928Y-8304214D02*
X14601071Y-8304214D01*
X14586786Y-8447072D01*
X14601071Y-8432786D01*
X14629643Y-8418500D01*
X14701071Y-8418500D01*
X14729643Y-8432786D01*
X14743928Y-8447072D01*
X14758214Y-8475643D01*
X14758214Y-8547072D01*
X14743928Y-8575643D01*
X14729643Y-8589929D01*
X14701071Y-8604214D01*
X14629643Y-8604214D01*
X14601071Y-8589929D01*
X14586786Y-8575643D01*
X14858214Y-8304214D02*
X15058214Y-8304214D01*
X14929643Y-8604214D01*
X15158214Y-8304214D02*
X15158214Y-8361357D01*
X15272500Y-8304214D02*
X15272500Y-8361357D01*
X15715357Y-8718500D02*
X15701071Y-8704214D01*
X15672500Y-8661357D01*
X15658214Y-8632786D01*
X15643928Y-8589929D01*
X15629643Y-8518500D01*
X15629643Y-8461357D01*
X15643928Y-8389929D01*
X15658214Y-8347071D01*
X15672500Y-8318500D01*
X15701071Y-8275643D01*
X15715357Y-8261357D01*
X15958214Y-8304214D02*
X15901071Y-8304214D01*
X15872500Y-8318500D01*
X15858214Y-8332786D01*
X15829643Y-8375643D01*
X15815357Y-8432786D01*
X15815357Y-8547072D01*
X15829643Y-8575643D01*
X15843928Y-8589929D01*
X15872500Y-8604214D01*
X15929643Y-8604214D01*
X15958214Y-8589929D01*
X15972500Y-8575643D01*
X15986786Y-8547072D01*
X15986786Y-8475643D01*
X15972500Y-8447072D01*
X15958214Y-8432786D01*
X15929643Y-8418500D01*
X15872500Y-8418500D01*
X15843928Y-8432786D01*
X15829643Y-8447072D01*
X15815357Y-8475643D01*
X16243928Y-8404214D02*
X16243928Y-8604214D01*
X16172500Y-8289929D02*
X16101071Y-8504214D01*
X16286786Y-8504214D01*
X16629643Y-8604214D02*
X16629643Y-8304214D01*
X16758214Y-8604214D02*
X16758214Y-8447072D01*
X16743928Y-8418500D01*
X16715357Y-8404214D01*
X16672500Y-8404214D01*
X16643928Y-8418500D01*
X16629643Y-8432786D01*
X16943928Y-8604214D02*
X16915357Y-8589929D01*
X16901071Y-8575643D01*
X16886786Y-8547072D01*
X16886786Y-8461357D01*
X16901071Y-8432786D01*
X16915357Y-8418500D01*
X16943928Y-8404214D01*
X16986786Y-8404214D01*
X17015357Y-8418500D01*
X17029643Y-8432786D01*
X17043928Y-8461357D01*
X17043928Y-8547072D01*
X17029643Y-8575643D01*
X17015357Y-8589929D01*
X16986786Y-8604214D01*
X16943928Y-8604214D01*
X17215357Y-8604214D02*
X17186786Y-8589929D01*
X17172500Y-8561357D01*
X17172500Y-8304214D01*
X17443928Y-8589929D02*
X17415357Y-8604214D01*
X17358214Y-8604214D01*
X17329643Y-8589929D01*
X17315357Y-8561357D01*
X17315357Y-8447072D01*
X17329643Y-8418500D01*
X17358214Y-8404214D01*
X17415357Y-8404214D01*
X17443928Y-8418500D01*
X17458214Y-8447072D01*
X17458214Y-8475643D01*
X17315357Y-8504214D01*
X17572500Y-8589929D02*
X17601071Y-8604214D01*
X17658214Y-8604214D01*
X17686786Y-8589929D01*
X17701071Y-8561357D01*
X17701071Y-8547072D01*
X17686786Y-8518500D01*
X17658214Y-8504214D01*
X17615357Y-8504214D01*
X17586786Y-8489929D01*
X17572500Y-8461357D01*
X17572500Y-8447072D01*
X17586786Y-8418500D01*
X17615357Y-8404214D01*
X17658214Y-8404214D01*
X17686786Y-8418500D01*
X17801071Y-8718500D02*
X17815357Y-8704214D01*
X17843928Y-8661357D01*
X17858214Y-8632786D01*
X17872500Y-8589929D01*
X17886786Y-8518500D01*
X17886786Y-8461357D01*
X17872500Y-8389929D01*
X17858214Y-8347071D01*
X17843928Y-8318500D01*
X17815357Y-8275643D01*
X17801071Y-8261357D01*
X10407500Y-8814500D02*
X10407500Y-8914500D01*
X10357500Y-8864500D02*
X10457500Y-8864500D01*
X10901071Y-9000214D02*
X10729643Y-9000214D01*
X10815357Y-9000214D02*
X10815357Y-8700214D01*
X10786786Y-8743072D01*
X10758214Y-8771643D01*
X10729643Y-8785929D01*
X11029643Y-8971643D02*
X11043928Y-8985929D01*
X11029643Y-9000214D01*
X11015357Y-8985929D01*
X11029643Y-8971643D01*
X11029643Y-9000214D01*
X11229643Y-8700214D02*
X11258214Y-8700214D01*
X11286786Y-8714500D01*
X11301071Y-8728786D01*
X11315357Y-8757357D01*
X11329643Y-8814500D01*
X11329643Y-8885929D01*
X11315357Y-8943072D01*
X11301071Y-8971643D01*
X11286786Y-8985929D01*
X11258214Y-9000214D01*
X11229643Y-9000214D01*
X11201071Y-8985929D01*
X11186786Y-8971643D01*
X11172500Y-8943072D01*
X11158214Y-8885929D01*
X11158214Y-8814500D01*
X11172500Y-8757357D01*
X11186786Y-8728786D01*
X11201071Y-8714500D01*
X11229643Y-8700214D01*
X11515357Y-8700214D02*
X11543928Y-8700214D01*
X11572500Y-8714500D01*
X11586786Y-8728786D01*
X11601071Y-8757357D01*
X11615357Y-8814500D01*
X11615357Y-8885929D01*
X11601071Y-8943072D01*
X11586786Y-8971643D01*
X11572500Y-8985929D01*
X11543928Y-9000214D01*
X11515357Y-9000214D01*
X11486786Y-8985929D01*
X11472500Y-8971643D01*
X11458214Y-8943072D01*
X11443928Y-8885929D01*
X11443928Y-8814500D01*
X11458214Y-8757357D01*
X11472500Y-8728786D01*
X11486786Y-8714500D01*
X11515357Y-8700214D01*
X11801071Y-8700214D02*
X11829643Y-8700214D01*
X11858214Y-8714500D01*
X11872500Y-8728786D01*
X11886786Y-8757357D01*
X11901071Y-8814500D01*
X11901071Y-8885929D01*
X11886786Y-8943072D01*
X11872500Y-8971643D01*
X11858214Y-8985929D01*
X11829643Y-9000214D01*
X11801071Y-9000214D01*
X11772500Y-8985929D01*
X11758214Y-8971643D01*
X11743928Y-8943072D01*
X11729643Y-8885929D01*
X11729643Y-8814500D01*
X11743928Y-8757357D01*
X11758214Y-8728786D01*
X11772500Y-8714500D01*
X11801071Y-8700214D01*
X12029643Y-9000214D02*
X12029643Y-8800214D01*
X12029643Y-8828786D02*
X12043928Y-8814500D01*
X12072500Y-8800214D01*
X12115357Y-8800214D01*
X12143928Y-8814500D01*
X12158214Y-8843072D01*
X12158214Y-9000214D01*
X12158214Y-8843072D02*
X12172500Y-8814500D01*
X12201071Y-8800214D01*
X12243928Y-8800214D01*
X12272500Y-8814500D01*
X12286786Y-8843072D01*
X12286786Y-9000214D01*
X12429643Y-9000214D02*
X12429643Y-8800214D01*
X12429643Y-8828786D02*
X12443928Y-8814500D01*
X12472500Y-8800214D01*
X12515357Y-8800214D01*
X12543928Y-8814500D01*
X12558214Y-8843072D01*
X12558214Y-9000214D01*
X12558214Y-8843072D02*
X12572500Y-8814500D01*
X12601071Y-8800214D01*
X12643928Y-8800214D01*
X12672500Y-8814500D01*
X12686786Y-8843072D01*
X12686786Y-9000214D01*
X13272500Y-8685929D02*
X13015357Y-9071643D01*
X13658214Y-8700214D02*
X13686786Y-8700214D01*
X13715357Y-8714500D01*
X13729643Y-8728786D01*
X13743928Y-8757357D01*
X13758214Y-8814500D01*
X13758214Y-8885929D01*
X13743928Y-8943072D01*
X13729643Y-8971643D01*
X13715357Y-8985929D01*
X13686786Y-9000214D01*
X13658214Y-9000214D01*
X13629643Y-8985929D01*
X13615357Y-8971643D01*
X13601071Y-8943072D01*
X13586786Y-8885929D01*
X13586786Y-8814500D01*
X13601071Y-8757357D01*
X13615357Y-8728786D01*
X13629643Y-8714500D01*
X13658214Y-8700214D01*
X13886786Y-8971643D02*
X13901071Y-8985929D01*
X13886786Y-9000214D01*
X13872500Y-8985929D01*
X13886786Y-8971643D01*
X13886786Y-9000214D01*
X14086786Y-8700214D02*
X14115357Y-8700214D01*
X14143928Y-8714500D01*
X14158214Y-8728786D01*
X14172500Y-8757357D01*
X14186786Y-8814500D01*
X14186786Y-8885929D01*
X14172500Y-8943072D01*
X14158214Y-8971643D01*
X14143928Y-8985929D01*
X14115357Y-9000214D01*
X14086786Y-9000214D01*
X14058214Y-8985929D01*
X14043928Y-8971643D01*
X14029643Y-8943072D01*
X14015357Y-8885929D01*
X14015357Y-8814500D01*
X14029643Y-8757357D01*
X14043928Y-8728786D01*
X14058214Y-8714500D01*
X14086786Y-8700214D01*
X14286786Y-8700214D02*
X14472500Y-8700214D01*
X14372500Y-8814500D01*
X14415357Y-8814500D01*
X14443928Y-8828786D01*
X14458214Y-8843072D01*
X14472500Y-8871643D01*
X14472500Y-8943072D01*
X14458214Y-8971643D01*
X14443928Y-8985929D01*
X14415357Y-9000214D01*
X14329643Y-9000214D01*
X14301071Y-8985929D01*
X14286786Y-8971643D01*
X14615357Y-9000214D02*
X14672500Y-9000214D01*
X14701071Y-8985929D01*
X14715357Y-8971643D01*
X14743928Y-8928786D01*
X14758214Y-8871643D01*
X14758214Y-8757357D01*
X14743928Y-8728786D01*
X14729643Y-8714500D01*
X14701071Y-8700214D01*
X14643928Y-8700214D01*
X14615357Y-8714500D01*
X14601071Y-8728786D01*
X14586786Y-8757357D01*
X14586786Y-8828786D01*
X14601071Y-8857357D01*
X14615357Y-8871643D01*
X14643928Y-8885929D01*
X14701071Y-8885929D01*
X14729643Y-8871643D01*
X14743928Y-8857357D01*
X14758214Y-8828786D01*
X15015357Y-8800214D02*
X15015357Y-9000214D01*
X14943928Y-8685929D02*
X14872500Y-8900214D01*
X15058214Y-8900214D01*
X15158214Y-8700214D02*
X15158214Y-8757357D01*
X15272500Y-8700214D02*
X15272500Y-8757357D01*
X15715357Y-9114500D02*
X15701071Y-9100214D01*
X15672500Y-9057357D01*
X15658214Y-9028786D01*
X15643928Y-8985929D01*
X15629643Y-8914500D01*
X15629643Y-8857357D01*
X15643928Y-8785929D01*
X15658214Y-8743072D01*
X15672500Y-8714500D01*
X15701071Y-8671643D01*
X15715357Y-8657357D01*
X15986786Y-9000214D02*
X15815357Y-9000214D01*
X15901071Y-9000214D02*
X15901071Y-8700214D01*
X15872500Y-8743072D01*
X15843928Y-8771643D01*
X15815357Y-8785929D01*
X16172500Y-8700214D02*
X16201071Y-8700214D01*
X16229643Y-8714500D01*
X16243928Y-8728786D01*
X16258214Y-8757357D01*
X16272500Y-8814500D01*
X16272500Y-8885929D01*
X16258214Y-8943072D01*
X16243928Y-8971643D01*
X16229643Y-8985929D01*
X16201071Y-9000214D01*
X16172500Y-9000214D01*
X16143928Y-8985929D01*
X16129643Y-8971643D01*
X16115357Y-8943072D01*
X16101071Y-8885929D01*
X16101071Y-8814500D01*
X16115357Y-8757357D01*
X16129643Y-8728786D01*
X16143928Y-8714500D01*
X16172500Y-8700214D01*
X16629643Y-9000214D02*
X16629643Y-8700214D01*
X16758214Y-9000214D02*
X16758214Y-8843072D01*
X16743928Y-8814500D01*
X16715357Y-8800214D01*
X16672500Y-8800214D01*
X16643928Y-8814500D01*
X16629643Y-8828786D01*
X16943928Y-9000214D02*
X16915357Y-8985929D01*
X16901071Y-8971643D01*
X16886786Y-8943072D01*
X16886786Y-8857357D01*
X16901071Y-8828786D01*
X16915357Y-8814500D01*
X16943928Y-8800214D01*
X16986786Y-8800214D01*
X17015357Y-8814500D01*
X17029643Y-8828786D01*
X17043928Y-8857357D01*
X17043928Y-8943072D01*
X17029643Y-8971643D01*
X17015357Y-8985929D01*
X16986786Y-9000214D01*
X16943928Y-9000214D01*
X17215357Y-9000214D02*
X17186786Y-8985929D01*
X17172500Y-8957357D01*
X17172500Y-8700214D01*
X17443928Y-8985929D02*
X17415357Y-9000214D01*
X17358214Y-9000214D01*
X17329643Y-8985929D01*
X17315357Y-8957357D01*
X17315357Y-8843072D01*
X17329643Y-8814500D01*
X17358214Y-8800214D01*
X17415357Y-8800214D01*
X17443928Y-8814500D01*
X17458214Y-8843072D01*
X17458214Y-8871643D01*
X17315357Y-8900214D01*
X17572500Y-8985929D02*
X17601071Y-9000214D01*
X17658214Y-9000214D01*
X17686786Y-8985929D01*
X17701071Y-8957357D01*
X17701071Y-8943072D01*
X17686786Y-8914500D01*
X17658214Y-8900214D01*
X17615357Y-8900214D01*
X17586786Y-8885929D01*
X17572500Y-8857357D01*
X17572500Y-8843072D01*
X17586786Y-8814500D01*
X17615357Y-8800214D01*
X17658214Y-8800214D01*
X17686786Y-8814500D01*
X17801071Y-9114500D02*
X17815357Y-9100214D01*
X17843928Y-9057357D01*
X17858214Y-9028786D01*
X17872500Y-8985929D01*
X17886786Y-8914500D01*
X17886786Y-8857357D01*
X17872500Y-8785929D01*
X17858214Y-8743072D01*
X17843928Y-8714500D01*
X17815357Y-8671643D01*
X17801071Y-8657357D01*
M02*
